<?xml version="1.0" encoding="utf-8"?>
<!-- Generator: Adobe Illustrator 21.0.0, SVG Export Plug-In . SVG Version: 6.00 Build 0)  -->
<svg version="1.1" id="Layer_1" xmlns="http://www.w3.org/2000/svg" xmlns:xlink="http://www.w3.org/1999/xlink" x="0px" y="0px"
	 viewBox="0 0 195.3 27.1" style="enable-background:new 0 0 195.3 27.1;" xml:space="preserve">
<style type="text/css">
	.st0{fill:#FFFFFF;}
	.st1{fill:#008CCE;}
	.st2{fill:#7B63AB;}
	.st3{fill:#EE334A;}
	.st4{fill:#00AD4D;}
	.st5{fill:#98DDF2;}
	.st6{fill:#072950;}
	.st7{fill:#FA8B2E;}
	.st8{fill:#052A53;}
	.st9{fill:#94DBF1;}
	.st10{fill:#062A52;}
	.st11{fill:#93DAF1;}
	.st12{fill:#419CD0;}
	.st13{fill:#F77F29;}
	.st14{fill:#419BCF;}
	.st15{fill:#042B54;}
	.st16{fill:#227FBA;}
	.st17{fill:#FA9B3C;}
	.st18{fill:#F7F9F7;}
	.st19{fill:#F7F8F7;}
	.st20{fill:#C0E8F4;}
	.st21{fill:#E35822;}
	.st22{fill:#1765A2;}
	.st23{fill:#062A50;}
	.st24{fill:#032B54;}
	.st25{fill:#429BCF;}
	.st26{fill:#042C55;}
	.st27{fill:#EE7025;}
	.st28{fill:#032C55;}
	.st29{fill:#9DDDF2;}
	.st30{fill:#FCB35E;}
	.st31{fill:#9ADCF1;}
	.st32{fill:#449BCE;}
	.st33{fill:#459DD1;}
	.st34{fill:#042B53;}
	.st35{fill:#DA5D2D;}
	.st36{fill:#F0F0EE;}
	.st37{fill:#092749;}
	.st38{fill:#0B2B4C;}
	.st39{fill:#115F9C;}
	.st40{fill:#032C54;}
	.st41{fill:#032B53;}
	.st42{fill:#FDB05A;}
	.st43{fill:#B0E2F2;}
	.st44{fill:#E3855B;}
	.st45{fill:#B7E4F2;}
	.st46{fill:#DA7439;}
	.st47{fill:#1A6BA9;}
	.st48{fill:#B3E4F3;}
	.st49{fill:#E68642;}
	.st50{fill:#142542;}
	.st51{fill:#052A4E;}
	.st52{fill:#D89E62;}
	.st53{fill:#D97744;}
	.st54{fill:#95D7ED;}
	.st55{fill:#A8E3F5;}
	.st56{fill:#DA9158;}
	.st57{fill:#F28049;}
	.st58{fill:#CCF0F9;}
	.st59{fill:#E77533;}
	.st60{fill:#46A0D5;}
	.st61{fill:#4FA7D9;}
	.st62{fill:#0C1D38;}
	.st63{fill:#BFE6F3;}
	.st64{fill:#1F2032;}
	.st65{fill:#95D4E8;}
	.st66{fill:#429CD1;}
	.st67{fill:#0F2B4C;}
	.st68{fill:#1C2338;}
	.st69{fill:#47A0D4;}
	.st70{fill:#081E3E;}
	.st71{fill:#B1E7F9;}
	.st72{fill:#3C98C9;}
	.st73{fill:#3D99CB;}
	.st74{fill:#E4964F;}
	.st75{fill:#E9994A;}
	.st76{fill:#142F4A;}
	.st77{fill:#CC8468;}
	.st78{fill:#3C96CA;}
	.st79{fill:#F78328;}
	.st80{fill:#0E203F;}
	.st81{fill:#9CD8EC;}
	.st82{fill:#ECFAFC;}
	.st83{fill:#123155;}
	.st84{fill:#489FD4;}
	.st85{fill:#0A2445;}
	.st86{fill:#DAA369;}
	.st87{fill:#A1E2F5;}
	.st88{fill:#EA9945;}
	.st89{fill:#0E2340;}
	.st90{fill:#0A2344;}
	.st91{fill:#021F44;}
	.st92{fill:#062547;}
	.st93{fill:#3C95C7;}
	.st94{fill:#A9DEF0;}
	.st95{fill:#4DA2D8;}
	.st96{fill:#0A2345;}
	.st97{fill:#A3DFF3;}
	.st98{fill:#A3D4E2;}
	.st99{fill:#A5DFF0;}
	.st100{fill:#3E99C9;}
	.st101{fill:#1A2431;}
	.st102{fill:#90C8DF;}
	.st103{fill:#F1F7FA;}
	.st104{fill:#0D2645;}
	.st105{fill:#2E7DB5;}
	.st106{fill:#CB7F3E;}
	.st107{fill:#3F99CE;}
	.st108{fill:#163554;}
	.st109{fill:#3E94C4;}
	.st110{fill:#ADDDED;}
	.st111{fill:#0C223F;}
	.st112{fill:#8DD7EE;}
	.st113{fill:#4C9ED0;}
	.st114{fill:#0F3254;}
	.st115{fill:#52A4D7;}
	.st116{fill:#0B2444;}
	.st117{fill:#272137;}
	.st118{fill:#DFA361;}
	.st119{fill:#57A9DC;}
	.st120{fill:#0F1F38;}
	.st121{fill:#92D3E9;}
	.st122{fill:#A1DBEB;}
	.st123{fill:#122B46;}
	.st124{fill:#0D1D38;}
	.st125{fill:#062447;}
	.st126{fill:#3D95C8;}
	.st127{fill:#9BD5E9;}
	.st128{fill:#49A1D5;}
	.st129{fill:#4CA1CA;}
	.st130{fill:#092344;}
	.st131{fill:#EFF5F9;}
	.st132{fill:#A3E3F7;}
	.st133{fill:#BDE3EF;}
	.st134{fill:#146CAA;}
	.st135{fill:#232032;}
	.st136{fill:#3D98C7;}
	.st137{fill:#0C2C50;}
	.st138{fill:#0D1A35;}
	.st139{fill:#0C2445;}
	.st140{fill:#4B9ED2;}
	.st141{fill:#3C97CC;}
	.st142{fill:#95D4E9;}
	.st143{fill:#092444;}
	.st144{fill:#3F99CD;}
	.st145{fill:#031232;}
	.st146{fill:#A3DDEE;}
	.st147{fill:#0B223C;}
	.st148{fill:#92BAC7;}
	.st149{fill:#4FA4D6;}
	.st150{fill:#A3E0F5;}
	.st151{fill:#4E9AC8;}
	.st152{fill:#08203F;}
	.st153{fill:#A0D7E6;}
	.st154{fill:#0D3055;}
	.st155{fill:#3C98C8;}
	.st156{fill:#2B7AB2;}
	.st157{fill:#44A1D4;}
	.st158{fill:#1563A0;}
	.st159{fill:#0C213E;}
	.st160{fill:#ED7424;}
	.st161{fill:#F2AA58;}
	.st162{fill:#4FA3D6;}
	.st163{fill:#062B54;}
	.st164{fill:#9CDCF2;}
	.st165{fill:#1B66A2;}
	.st166{fill:#236FA9;}
	.st167{fill:#1B6099;}
	.st168{fill:#050D1C;}
	.st169{fill:#081F3E;}
	.st170{fill:#082142;}
	.st171{fill:#4998C7;}
	.st172{fill:#082043;}
	.st173{fill:#092142;}
	.st174{fill:#082141;}
	.st175{fill:#9AE3F8;}
	.st176{fill:#49A3D7;}
	.st177{fill:#081B39;}
	.st178{fill:#E27B41;}
	.st179{fill:#DBF1F7;}
	.st180{fill:#173758;}
	.st181{fill:#4195C8;}
	.st182{fill:#4FA7DB;}
	.st183{fill:#ABE7F8;}
	.st184{fill:#49A0D3;}
	.st185{fill:#4394C8;}
	.st186{fill:#3B91C0;}
	.st187{fill:#1C2238;}
	.st188{fill:#99C9D9;}
	.st189{fill:#03244A;}
	.st190{fill:#4DA3D8;}
	.st191{fill:#113257;}
	.st192{fill:#0A2240;}
	.st193{fill:#032245;}
	.st194{fill:#B8E9F6;}
	.st195{fill:#A6E0F2;}
	.st196{fill:#2F87C0;}
	.st197{fill:#0C5E9C;}
	.st198{fill:#0B1B34;}
	.st199{fill:#153251;}
	.st200{fill:#092041;}
	.st201{fill:#062B50;}
	.st202{fill:#469BC6;}
	.st203{fill:#A5E0F4;}
	.st204{fill:#C9EEF7;}
	.st205{fill:#081934;}
	.st206{fill:#4A82A1;}
	.st207{fill:#4B88AC;}
	.st208{fill:#53423E;}
	.st209{fill:#876251;}
	.st210{fill:#9A4B24;}
	.st211{fill:#4E809C;}
	.st212{fill:#5A99BA;}
	.st213{fill:#3C6E8D;}
	.st214{fill:#689EB9;}
</style>
<g>
	<ellipse class="st0" cx="9.7" cy="-20.9" rx="9.7" ry="9.5"/>
	<g>
		<path class="st0" d="M41.7-28v15.5h-2.6v-11.6l-4.6,11.6h-2.3l-4.6-11.6v11.6H25V-28h3.1l5.2,12.3L38.5-28H41.7z M52.7-24.2
			c0.8,0.5,1.4,1.3,1.7,2.2v-2.9h2.6v12.3h-2.6v-2.8c-0.3,0.9-0.9,1.7-1.7,2.2c-0.8,0.5-1.8,0.8-2.9,0.8c-1.1,0-2.1-0.3-2.9-0.8
			c-0.9-0.5-1.5-1.2-2-2.2c-0.5-0.9-0.7-2.1-0.7-3.4c0-1.3,0.2-2.4,0.7-3.3c0.5-0.9,1.2-1.7,2-2.2c0.9-0.5,1.8-0.8,2.9-0.8
			C51-25,51.9-24.7,52.7-24.2z M47.9-21.7c-0.7,0.7-1,1.7-1,3c0,1.3,0.3,2.3,1,3c0.7,0.7,1.6,1.1,2.8,1.1c0.7,0,1.4-0.2,2-0.5
			c0.6-0.3,1-0.8,1.4-1.4c0.3-0.6,0.5-1.3,0.5-2.1c0-0.8-0.2-1.5-0.5-2.1c-0.3-0.6-0.8-1.1-1.4-1.4c-0.6-0.3-1.2-0.5-2-0.5
			C49.5-22.8,48.6-22.4,47.9-21.7L47.9-21.7z M66.5-14.8v2.2h-1.6c-1.3,0-2.3-0.3-3-0.9c-0.7-0.6-1-1.7-1-3.1v-6H59v-2.2h1.8v-3h2.6
			v3h3v2.2h-3v6.1c0,0.7,0.1,1.2,0.4,1.4c0.3,0.3,0.7,0.4,1.4,0.4C65.2-14.8,66.5-14.8,66.5-14.8z M80.5-18.2h-9.7
			c0,1.3,0.4,2.2,1.1,2.8c0.7,0.6,1.5,0.9,2.5,0.9c0.9,0,1.6-0.2,2.2-0.6c0.6-0.4,1-1,1.1-1.7h2.8c-0.2,0.8-0.5,1.6-1,2.3
			c-0.5,0.7-1.2,1.2-2.1,1.6c-0.8,0.4-1.8,0.6-2.8,0.6c-1.2,0-2.3-0.3-3.2-0.8c-0.9-0.5-1.7-1.3-2.2-2.2c-0.5-0.9-0.8-2.1-0.8-3.4
			c0-1.3,0.3-2.4,0.8-3.3c0.5-0.9,1.3-1.7,2.2-2.2c0.9-0.5,2-0.8,3.2-0.8c1.2,0,2.3,0.2,3.2,0.7c0.9,0.5,1.6,1.2,2.1,2
			c0.5,0.9,0.7,1.8,0.7,2.9C80.6-18.9,80.6-18.6,80.5-18.2z M77.5-21.4c-0.3-0.5-0.7-0.9-1.3-1.2c-0.6-0.3-1.2-0.4-1.8-0.4
			c-1,0-1.9,0.3-2.6,0.9c-0.7,0.6-1.1,1.5-1.1,2.7H78C78-20.2,77.9-20.8,77.5-21.4z M87.5-24.3c0.8-0.5,1.7-0.7,2.7-0.7v2.8h-0.8
			c-1.1,0-2.1,0.3-2.7,0.8c-0.7,0.5-1,1.4-1,2.7v6.2h-2.6v-12.3h2.6v2.4C86.1-23.2,86.7-23.9,87.5-24.3z M92.3-29.5
			c0.3-0.3,0.7-0.4,1.2-0.4s0.9,0.1,1.2,0.4c0.3,0.3,0.5,0.6,0.5,1.1c0,0.4-0.2,0.8-0.5,1c-0.3,0.3-0.7,0.4-1.2,0.4
			c-0.5,0-0.9-0.1-1.2-0.4c-0.3-0.3-0.5-0.6-0.5-1C91.8-28.8,92-29.2,92.3-29.5z M94.8-24.8v12.3h-2.6v-12.3L94.8-24.8L94.8-24.8z
			 M105.9-24.2c0.8,0.5,1.4,1.3,1.7,2.2v-2.9h2.6v12.3h-2.6v-2.8c-0.3,0.9-0.9,1.7-1.7,2.2c-0.8,0.5-1.8,0.8-2.9,0.8
			c-1.1,0-2.1-0.3-2.9-0.8c-0.9-0.5-1.5-1.2-2-2.2c-0.5-0.9-0.7-2.1-0.7-3.4c0-1.3,0.2-2.4,0.7-3.3c0.5-0.9,1.2-1.7,2-2.2
			c0.9-0.5,1.8-0.8,2.9-0.8C104.1-25,105.1-24.7,105.9-24.2z M101-21.7c-0.7,0.7-1,1.7-1,3c0,1.3,0.3,2.3,1,3
			c0.7,0.7,1.6,1.1,2.8,1.1c0.7,0,1.4-0.2,2-0.5c0.6-0.3,1-0.8,1.4-1.4c0.3-0.6,0.5-1.3,0.5-2.1c0-0.8-0.2-1.5-0.5-2.1
			c-0.3-0.6-0.8-1.1-1.4-1.4c-0.6-0.3-1.2-0.5-2-0.5C102.6-22.8,101.7-22.4,101-21.7L101-21.7z M115.9-29v16.5h-2.6V-29L115.9-29z
			 M137.2-16.3c-0.7,1.2-1.6,2.1-2.9,2.7c-1.3,0.7-2.8,1-4.5,1h-5.4v-15.7h5.4c1.8,0,3.3,0.3,4.5,1c1.3,0.6,2.2,1.6,2.9,2.7
			c0.7,1.2,1,2.6,1,4.1C138.1-18.9,137.8-17.5,137.2-16.3L137.2-16.3z M134-16.3c1-1,1.5-2.4,1.5-4.1c0-1.8-0.5-3.1-1.5-4.1
			c-1-1-2.5-1.5-4.4-1.5h-2.6v11.2h2.6C131.4-14.9,132.9-15.4,134-16.3z M148.7-24.2c0.8,0.5,1.4,1.3,1.7,2.2v-2.9h2.6v12.3h-2.6
			v-2.8c-0.3,0.9-0.9,1.7-1.7,2.2c-0.8,0.5-1.8,0.8-2.9,0.8c-1.1,0-2.1-0.3-2.9-0.8c-0.9-0.5-1.5-1.2-2-2.2
			c-0.5-0.9-0.7-2.1-0.7-3.4c0-1.3,0.2-2.4,0.7-3.3c0.5-0.9,1.2-1.7,2-2.2c0.9-0.5,1.8-0.8,2.9-0.8C146.9-25,147.9-24.7,148.7-24.2z
			 M143.8-21.7c-0.7,0.7-1,1.7-1,3c0,1.3,0.3,2.3,1,3c0.7,0.7,1.6,1.1,2.8,1.1c0.7,0,1.4-0.2,2-0.5c0.6-0.3,1-0.8,1.4-1.4
			c0.3-0.6,0.5-1.3,0.5-2.1c0-0.8-0.2-1.5-0.5-2.1c-0.3-0.6-0.8-1.1-1.4-1.4c-0.6-0.3-1.2-0.5-2-0.5
			C145.4-22.8,144.5-22.4,143.8-21.7z M163.8-23.9c0.9,0.7,1.4,1.7,1.6,2.9H163c-0.1-0.7-0.4-1.2-0.9-1.6c-0.5-0.4-1.1-0.6-1.9-0.6
			c-0.6,0-1.2,0.2-1.5,0.5c-0.4,0.3-0.5,0.7-0.5,1.2c0,0.4,0.1,0.7,0.4,0.9c0.3,0.2,0.6,0.4,1,0.6c0.4,0.1,0.9,0.3,1.6,0.4
			c0.9,0.2,1.7,0.4,2.3,0.6c0.6,0.2,1.1,0.6,1.5,1.1c0.4,0.5,0.6,1.1,0.6,2c0,1-0.4,1.9-1.2,2.5c-0.8,0.6-1.9,1-3.2,1
			c-1.6,0-2.8-0.4-3.8-1.1c-1-0.7-1.5-1.7-1.7-3h2.5c0.1,0.7,0.4,1.2,0.9,1.6c0.5,0.4,1.2,0.6,2.1,0.6c0.6,0,1.1-0.2,1.5-0.5
			c0.3-0.3,0.5-0.7,0.5-1.2c0-0.4-0.1-0.8-0.4-1c-0.3-0.3-0.6-0.5-1-0.6c-0.4-0.1-1-0.3-1.7-0.4c-0.8-0.2-1.5-0.4-2.2-0.6
			c-0.6-0.2-1.1-0.6-1.5-1c-0.4-0.5-0.6-1.1-0.6-1.9c0-1,0.4-1.9,1.2-2.5c0.8-0.6,1.9-1,3.3-1C161.7-25,162.9-24.6,163.8-23.9z
			 M178.7-23.7c0.9,0.9,1.3,2.2,1.3,3.9v7.1h-2.6v-6.9c0-1.1-0.3-1.9-0.9-2.5c-0.6-0.6-1.4-0.9-2.4-0.9c-1,0-1.9,0.3-2.5,1
			c-0.6,0.6-0.9,1.6-0.9,2.8v6.5h-2.6V-29h2.6v6.9c0.3-0.9,0.9-1.6,1.7-2.1c0.8-0.5,1.7-0.8,2.7-0.8C176.6-25,177.8-24.6,178.7-23.7
			L178.7-23.7z"/>
	</g>
	<path class="st1" d="M5.2-25.3h4.6v4.5H5.2V-25.3z"/>
	<path class="st2" d="M9.7-25.3h4.6v4.5H9.7V-25.3z"/>
	<path class="st3" d="M9.7-16.4H7.9c-1.5,0-2.7-1.2-2.7-2.6v-1.8h4.6C9.7-20.9,9.7-16.4,9.7-16.4z"/>
	<path class="st4" d="M11.8-16.4H9.7v-4.5h4.6v2.1C14.3-17.5,13.2-16.4,11.8-16.4L11.8-16.4z"/>
</g>
<g>
	<path class="st0" d="M26.3,10.4c0.6-1,1.3-1.8,2.3-2.4c1-0.6,2.1-0.8,3.4-0.8c1.6,0,2.9,0.4,4,1.2c1.1,0.8,1.8,1.9,2.2,3.4h-3.5
		c-0.3-0.5-0.6-1-1.1-1.2c-0.5-0.3-1-0.4-1.6-0.4c-1,0-1.8,0.3-2.4,1c-0.6,0.7-0.9,1.6-0.9,2.7c0,1.1,0.3,2.1,0.9,2.7
		c0.6,0.7,1.4,1,2.4,1c0.6,0,1.2-0.1,1.6-0.4c0.5-0.3,0.8-0.7,1.1-1.2h3.5c-0.4,1.4-1.1,2.5-2.2,3.3c-1.1,0.8-2.4,1.2-4,1.2
		c-1.3,0-2.4-0.3-3.4-0.8c-1-0.6-1.8-1.4-2.3-2.4c-0.6-1-0.8-2.2-0.8-3.5S25.8,11.4,26.3,10.4z"/>
	<path class="st0" d="M49.5,11.1c0.7,0.8,1.1,1.9,1.1,3.3v6.1h-3.2v-5.7c0-0.7-0.2-1.2-0.5-1.6c-0.4-0.4-0.8-0.6-1.5-0.6
		c-0.6,0-1.1,0.2-1.5,0.6c-0.4,0.4-0.5,0.9-0.5,1.6v5.7h-3.2V6.6h3.2v4.8c0.3-0.5,0.8-0.8,1.3-1.1c0.6-0.3,1.2-0.4,1.9-0.4
		C47.8,9.9,48.8,10.3,49.5,11.1z"/>
	<path class="st0" d="M62.6,15.9h-7.2c0,0.6,0.3,1.1,0.6,1.5c0.4,0.3,0.8,0.5,1.4,0.5c0.8,0,1.3-0.3,1.7-1h3.4
		c-0.2,0.7-0.5,1.3-0.9,1.8c-0.5,0.5-1,1-1.7,1.3c-0.7,0.3-1.4,0.5-2.3,0.5c-1,0-1.9-0.2-2.7-0.7c-0.8-0.4-1.4-1.1-1.9-1.9
		c-0.4-0.8-0.7-1.8-0.7-2.8c0-1.1,0.2-2,0.7-2.8c0.4-0.8,1.1-1.4,1.9-1.9c0.8-0.4,1.7-0.7,2.7-0.7c1,0,1.9,0.2,2.7,0.6
		c0.8,0.4,1.4,1,1.8,1.8c0.4,0.8,0.7,1.7,0.7,2.7C62.6,15.3,62.6,15.6,62.6,15.9z M59.3,14.2c0-0.5-0.2-1-0.6-1.3
		c-0.4-0.3-0.8-0.5-1.4-0.5c-0.5,0-1,0.2-1.4,0.5s-0.6,0.8-0.7,1.3H59.3z"/>
	<path class="st0" d="M64.3,12.3c0.4-0.8,1.1-1.4,1.8-1.9c0.8-0.4,1.7-0.7,2.7-0.7c1.3,0,2.4,0.3,3.3,1c0.9,0.7,1.5,1.6,1.7,2.9
		h-3.4c-0.3-0.8-0.8-1.2-1.7-1.2c-0.6,0-1.1,0.2-1.4,0.7c-0.3,0.5-0.5,1.1-0.5,1.9c0,0.8,0.2,1.5,0.5,1.9c0.3,0.5,0.8,0.7,1.4,0.7
		c0.8,0,1.4-0.4,1.7-1.2h3.4c-0.3,1.2-0.9,2.2-1.7,2.9c-0.9,0.7-2,1-3.3,1c-1,0-1.9-0.2-2.7-0.7c-0.8-0.4-1.4-1.1-1.8-1.9
		c-0.4-0.8-0.7-1.8-0.7-2.8C63.7,14.1,63.9,13.2,64.3,12.3z"/>
	<path class="st0" d="M81.9,20.4L78.8,16v4.4h-3.2V6.6h3.2v7.6l3.2-4.2h3.9l-4.3,5.2l4.4,5.2H81.9z"/>
	<path class="st0" d="M96.5,7.3v2.6H93v10.5h-3.2V9.8h-3.5V7.3H96.5z"/>
	<path class="st0" d="M100.1,19.9c-0.8-0.4-1.5-1.1-1.9-1.9c-0.5-0.8-0.7-1.8-0.7-2.8c0-1.1,0.2-2,0.7-2.8c0.5-0.8,1.1-1.4,1.9-1.9
		c0.8-0.4,1.7-0.7,2.8-0.7c1,0,1.9,0.2,2.8,0.7c0.8,0.4,1.5,1.1,1.9,1.9c0.5,0.8,0.7,1.8,0.7,2.8s-0.2,2-0.7,2.8
		c-0.5,0.8-1.1,1.4-2,1.9c-0.8,0.4-1.8,0.7-2.8,0.7C101.8,20.5,100.9,20.3,100.1,19.9z M104.4,17.1c0.4-0.4,0.6-1.1,0.6-1.9
		s-0.2-1.5-0.6-1.9c-0.4-0.4-0.9-0.7-1.5-0.7c-0.6,0-1.1,0.2-1.5,0.7c-0.4,0.4-0.6,1.1-0.6,1.9c0,0.8,0.2,1.5,0.6,1.9
		c0.4,0.4,0.9,0.7,1.5,0.7S104,17.6,104.4,17.1z"/>
	<path class="st0" d="M119.3,11.1c0.7,0.8,1.1,1.9,1.1,3.3v6.1h-3.2v-5.7c0-0.7-0.2-1.2-0.5-1.6c-0.4-0.4-0.8-0.6-1.5-0.6
		c-0.6,0-1.1,0.2-1.5,0.6c-0.4,0.4-0.5,0.9-0.5,1.6v5.7H110V10h3.2v1.4c0.3-0.5,0.8-0.8,1.3-1.1c0.5-0.3,1.2-0.4,1.8-0.4
		C117.6,9.9,118.5,10.3,119.3,11.1z"/>
	<path class="st0" d="M122.9,10.4c0.6-1,1.3-1.8,2.3-2.4c1-0.6,2.1-0.8,3.4-0.8c1.6,0,2.9,0.4,4,1.2c1.1,0.8,1.8,1.9,2.2,3.4h-3.5
		c-0.3-0.5-0.6-1-1.1-1.2c-0.5-0.3-1-0.4-1.6-0.4c-1,0-1.8,0.3-2.4,1c-0.6,0.7-0.9,1.6-0.9,2.7c0,1.1,0.3,2.1,0.9,2.7
		c0.6,0.7,1.4,1,2.4,1c0.6,0,1.2-0.1,1.6-0.4c0.5-0.3,0.8-0.7,1.1-1.2h3.5c-0.4,1.4-1.1,2.5-2.2,3.3c-1.1,0.8-2.4,1.2-4,1.2
		c-1.3,0-2.4-0.3-3.4-0.8c-1-0.6-1.8-1.4-2.3-2.4c-0.6-1-0.8-2.2-0.8-3.5S122.3,11.4,122.9,10.4z"/>
	<path class="st0" d="M138.8,19.9c-0.8-0.4-1.5-1.1-1.9-1.9c-0.5-0.8-0.7-1.8-0.7-2.8c0-1.1,0.2-2,0.7-2.8c0.5-0.8,1.1-1.4,1.9-1.9
		c0.8-0.4,1.7-0.7,2.8-0.7c1,0,1.9,0.2,2.8,0.7c0.8,0.4,1.5,1.1,1.9,1.9c0.5,0.8,0.7,1.8,0.7,2.8s-0.2,2-0.7,2.8
		c-0.5,0.8-1.1,1.4-2,1.9c-0.8,0.4-1.8,0.7-2.8,0.7C140.5,20.5,139.6,20.3,138.8,19.9z M143.1,17.1c0.4-0.4,0.6-1.1,0.6-1.9
		s-0.2-1.5-0.6-1.9c-0.4-0.4-0.9-0.7-1.5-0.7c-0.6,0-1.1,0.2-1.5,0.7c-0.4,0.4-0.6,1.1-0.6,1.9c0,0.8,0.2,1.5,0.6,1.9
		c0.4,0.4,0.9,0.7,1.5,0.7C142.1,17.8,142.6,17.6,143.1,17.1z"/>
	<path class="st0" d="M157.9,11.1c0.7,0.8,1.1,1.9,1.1,3.3v6.1h-3.2v-5.7c0-0.7-0.2-1.2-0.5-1.6c-0.4-0.4-0.8-0.6-1.5-0.6
		c-0.6,0-1.1,0.2-1.5,0.6c-0.4,0.4-0.5,0.9-0.5,1.6v5.7h-3.2V10h3.2v1.4c0.3-0.5,0.8-0.8,1.3-1.1c0.5-0.3,1.2-0.4,1.8-0.4
		C156.2,9.9,157.2,10.3,157.9,11.1z"/>
	<path class="st0" d="M167,17.7v2.7h-1.6c-1.2,0-2.1-0.3-2.7-0.8c-0.6-0.6-1-1.5-1-2.8v-4.1h-1.3V10h1.3V7.4h3.2V10h2.1v2.6h-2.1
		v4.2c0,0.3,0.1,0.5,0.2,0.7c0.1,0.1,0.4,0.2,0.7,0.2H167z"/>
	<path class="st0" d="M173.4,10.4c0.6-0.3,1.2-0.5,1.9-0.5v3.4h-0.9c-0.8,0-1.4,0.2-1.8,0.5c-0.4,0.3-0.6,0.9-0.6,1.8v4.8h-3.2V10
		h3.2v1.7C172.4,11.1,172.8,10.7,173.4,10.4z"/>
	<path class="st0" d="M176.8,12.3c0.4-0.8,1-1.4,1.7-1.9c0.7-0.4,1.5-0.7,2.3-0.7c0.7,0,1.4,0.1,1.9,0.4c0.6,0.3,1,0.7,1.3,1.2V10
		h3.2v10.4h-3.2v-1.5c-0.3,0.5-0.7,0.9-1.3,1.2c-0.6,0.3-1.2,0.4-1.9,0.4c-0.8,0-1.6-0.2-2.3-0.7c-0.7-0.4-1.2-1.1-1.7-1.9
		c-0.4-0.8-0.6-1.8-0.6-2.8C176.2,14.1,176.4,13.2,176.8,12.3z M183.3,13.3c-0.4-0.5-1-0.7-1.6-0.7s-1.2,0.2-1.6,0.7
		c-0.4,0.5-0.7,1.1-0.7,1.9c0,0.8,0.2,1.4,0.7,1.9c0.4,0.5,1,0.7,1.6,0.7s1.2-0.2,1.6-0.7c0.4-0.5,0.7-1.1,0.7-1.9
		C183.9,14.4,183.7,13.8,183.3,13.3z"/>
	<path class="st0" d="M195.3,17.7v2.7h-1.6c-1.2,0-2.1-0.3-2.7-0.8c-0.6-0.6-1-1.5-1-2.8v-4.1h-1.3V10h1.3V7.4h3.2V10h2.1v2.6h-2.1
		v4.2c0,0.3,0.1,0.5,0.2,0.7c0.1,0.1,0.4,0.2,0.7,0.2H195.3z"/>
</g>
<g>
	<path class="st5" d="M10.9,0c1.7-0.1,3.8,0.1,5.5,0.7c0.3,0.1,0.3,0.1,0.6,0.1c0,0,0,0.1,0,0.1c0.1,0,0.1,0,0.2-0.1
		c0,0,0,0.1,0,0.1c0,0,0.1,0,0.1,0c0.7,0.2,1.3,0.6,1.6,1.2c0.7,1.4,0.1,3.6-0.1,5.1c0,0.1,0,0.3-0.1,0.4c-0.2,1.5-0.6,3-1.2,4.4
		c0,0.1,0,0.1-0.1,0.2c0,0-0.1,0-0.1,0c0,0.1,0,0.1-0.1,0.2c0,0.1,0,0.1-0.1,0.2c0,0,0,0.1,0,0.2c-0.1,0.2-0.2,0.3-0.4,0.4
		c-0.2,0.2-0.4,0.5-0.5,0.7c-0.1,0.2-0.3,0.3-0.5,0.5c-0.1,0.1-0.1,0.1-0.2,0.2c-0.1,0.1-0.3,0.2-0.4,0.3C15,15,15,15,14.9,15.1
		c0,0-0.1,0.1-0.1,0.1c0.2,0.1,0.4,0.2,0.6,0.2c0.1,0,0.1,0,0.2,0.1c0.1,0,0.1,0,0.2,0.1c0.1,0,0.1,0,0.2,0.1c0.1,0,0.1,0,0.2,0
		c0,0,0,0.1,0,0.1c0,0,0.1,0,0.1,0c0.7,0.2,1.4,0.8,1.7,1.4c0.3,0.6,0.2,1.3,0,1.9c-0.1,0.3-0.3,0.5-0.5,0.7
		c-0.1,0.2-0.1,0.4-0.1,0.6c0,0-0.1,0-0.1,0c0,0.1,0,0.1,0,0.2c0,0,0,0.1,0,0.1c0,0.2,0,0.2,0.1,0.3c0.2,0.3,0.2,0.7,0.3,1.1
		c0,0.1,0,0.3,0.1,0.4c0,0.1,0,0.1,0,0.2c0,0.2,0,0.2,0.1,0.3c0,0.1,0,0.2,0,0.4c0,0.1,0,0.1,0,0.2c0.1,0.3,0,0.5-0.1,0.8
		c-0.2,0.2-0.2,0.2-0.3,0.3c0,0.1,0,0.1,0,0.2c0,0.2-0.1,0.3-0.1,0.5c0,0,0,0.1,0,0.1c0,0.1,0,0.2-0.1,0.3c0,0-0.1,0-0.1,0
		c0,0,0,0.1,0,0.1c-0.2,0.4-0.8,0.6-1.2,0.7c-1.5,0.4-3,0.5-4.5,0.5c-0.2,0-0.4,0-0.6,0c-1.1,0-2.1-0.1-3.1-0.3c-0.1,0-0.1,0-0.2,0
		c-0.8-0.1-1.7-0.4-2.2-1c-0.1-0.2-0.2-0.4-0.1-0.6c0-0.3,0-0.3-0.1-0.5c-0.1,0-0.1-0.1-0.2-0.1c-0.1-0.2-0.1-0.3-0.1-0.5
		c0,0,0-0.1,0-0.2c0-0.1,0-0.1,0-0.2c0-0.1,0-0.1,0-0.2c0-0.1,0-0.3,0-0.4c0,0,0.1,0,0.1,0c0-0.1,0-0.1-0.1-0.2
		c0-0.3,0.1-0.5,0.1-0.8c0-0.1,0-0.1,0-0.2c0.1-0.5,0.2-0.9,0.5-1.2c0.4-0.2,0.7-0.4,1.2-0.5c0,0,0.1,0,0.1,0c0.2,0,0.4-0.1,0.6-0.1
		c0.3,0,0.6,0,0.8-0.3c0.2-0.3,0.4-0.6,0.6-0.9c0.1-0.2,0.1-0.2,0.2-0.2c0.1-0.4,0.1-0.8,0.1-1.2c0-0.1,0-0.3,0.1-0.4
		c-0.1,0-0.1,0-0.2,0.1c-1,0.4-2,0.5-3.1,0.5c-0.1,0-0.1,0-0.1,0c-0.4,0-0.7,0-1.1-0.1c0,0-0.1,0-0.1,0c-1.2-0.3-2.2-1-2.9-2
		c-0.2-0.3-0.5-0.8-0.5-1.2c0,0-0.1,0-0.1-0.1C1,14.2,1,14,1,13.9c-0.1-0.4-0.1-0.8-0.3-1.1c-0.3-0.6-0.4-1.3-0.2-1.9
		c0.1-0.2,0.2-0.5,0.4-0.6c0,0,0.1,0,0.1,0c0,0,0-0.1,0-0.1c0,0,0.1,0,0.1-0.1c0.3-0.1,0.5-0.3,0.8-0.5c0.3-0.1,0.5-0.2,0.8-0.2
		c0.2,0,0.2,0,0.4-0.1c0.4-0.1,0.7-0.1,1.1,0.2C4.3,9.6,4.5,9.8,4.6,10c0,0,0,0.1,0.1,0.1c0,0.1,0,0.2,0,0.3c0,0.3,0.1,0.4,0.3,0.6
		c0.1,0.3,0.1,0.6,0,1c-0.2,0.5-0.6,0.9-1.1,1.1c0,0-0.1,0-0.1,0c0.2,0.7,0.4,1.3,1.1,1.7c0,0,0.1,0,0.1,0c0,0,0,0.1,0,0.1
		c0.1,0,0.2,0,0.3,0c0,0,0,0.1,0,0.1c1,0.2,1.9,0.2,2.8-0.1c0,0-0.1,0-0.1-0.1c-0.3-0.2-0.6-0.5-0.9-0.7c-0.1,0-0.1-0.1-0.2-0.1
		c-0.6-0.5-1.1-1.2-1.5-1.9c0-0.1,0-0.1,0-0.2c0,0-0.1,0-0.1-0.1C5.3,12,5.3,12,5.2,11.8c0,0,0-0.1-0.1-0.1c0-0.1,0-0.1-0.1-0.2
		c0-0.1,0-0.1-0.1-0.2c-0.1-0.3-0.2-0.7-0.3-1c0-0.1,0-0.1-0.1-0.2C4.2,8.6,4.2,8.6,4.2,8.2c0,0-0.1,0-0.1-0.1c0-0.1,0-0.1,0-0.2
		c0-0.1,0-0.3-0.1-0.4c0,0,0-0.1,0-0.1C4,7.1,4,6.9,3.9,6.6C3.8,5.9,3.7,5.2,3.7,4.4c0-0.1,0-0.1,0-0.2c0,0,0-0.1,0-0.1
		c0-0.1,0-0.1,0-0.3c0-0.2,0-0.4,0-0.6c0-0.1,0-0.1,0-0.2C3.7,2.3,4,1.9,4.5,1.5C5,1,5.6,0.9,6.2,0.7c0.1,0,0.2-0.1,0.3-0.1
		C7.9,0.1,9.4,0.1,10.9,0z M13.6,17.1c0,0.2,0,0.4,0,0.6c0,0.1,0,0.1,0,0.2c0,0.6,0.1,1,0.4,1.5c0,0,0.1-0.1,0.1-0.1
		c0.3-0.3,0.5-0.5,0.9-0.6c0.2-0.1,0.2-0.1,0.3-0.2c0.1-0.2,0.1-0.3,0-0.6C14.9,17.4,14.2,17.2,13.6,17.1z"/>
	<path class="st6" d="M10.9,0c1.7-0.1,3.8,0.1,5.5,0.7c0.3,0.1,0.3,0.1,0.6,0.1c0,0,0,0.1,0,0.1c0.1,0,0.1,0,0.2-0.1
		c0,0,0,0.1,0,0.1c0,0,0.1,0,0.1,0c0.7,0.2,1.3,0.6,1.6,1.2c0.7,1.4,0.1,3.6-0.1,5.1c0,0.1,0,0.3-0.1,0.4c-0.2,1.5-0.6,3-1.2,4.4
		c0,0.1,0,0.1-0.1,0.2c0,0-0.1,0-0.1,0c0,0.1,0,0.1-0.1,0.2c0,0.1,0,0.1-0.1,0.2c0,0,0,0.1,0,0.2c-0.1,0.2-0.2,0.3-0.4,0.4
		c-0.2,0.2-0.4,0.5-0.5,0.7c-0.1,0.2-0.3,0.3-0.5,0.5c-0.1,0.1-0.1,0.1-0.2,0.2c-0.1,0.1-0.3,0.2-0.4,0.3C15,15,15,15,14.9,15.1
		c0,0-0.1,0.1-0.1,0.1c0.2,0.1,0.4,0.2,0.6,0.2c0.1,0,0.1,0,0.2,0.1c0.1,0,0.1,0,0.2,0.1c0.1,0,0.1,0,0.2,0.1c0.1,0,0.1,0,0.2,0
		c0,0,0,0.1,0,0.1c0,0,0.1,0,0.1,0c0.7,0.2,1.4,0.8,1.7,1.4c0.3,0.6,0.2,1.3,0,1.9c-0.1,0.3-0.3,0.5-0.5,0.7
		c-0.1,0.2-0.1,0.4-0.1,0.6c0,0-0.1,0-0.1,0c0,0.1,0,0.1,0,0.2c0,0,0,0.1,0,0.1c0,0.2,0,0.2,0.1,0.3c0.2,0.3,0.2,0.7,0.3,1.1
		c0,0.1,0,0.3,0.1,0.4c0,0.1,0,0.1,0,0.2c0,0.2,0,0.2,0.1,0.3c0,0.1,0,0.2,0,0.4c0,0.1,0,0.1,0,0.2c0.1,0.3,0,0.5-0.1,0.8
		c-0.2,0.2-0.2,0.2-0.3,0.3c0,0.1,0,0.1,0,0.2c0,0.2-0.1,0.3-0.1,0.5c0,0,0,0.1,0,0.1c0,0.1,0,0.2-0.1,0.3c0,0-0.1,0-0.1,0
		c0,0,0,0.1,0,0.1c-0.2,0.4-0.8,0.6-1.2,0.7c-1.5,0.4-3,0.5-4.5,0.5c-0.2,0-0.4,0-0.6,0c-1.1,0-2.1-0.1-3.1-0.3c-0.1,0-0.1,0-0.2,0
		c-0.8-0.1-1.7-0.4-2.2-1c-0.1-0.2-0.2-0.4-0.1-0.6c0-0.3,0-0.3-0.1-0.5c-0.1,0-0.1-0.1-0.2-0.1c-0.1-0.2-0.1-0.3-0.1-0.5
		c0,0,0-0.1,0-0.2c0-0.1,0-0.1,0-0.2c0-0.1,0-0.1,0-0.2c0-0.1,0-0.3,0-0.4c0,0,0.1,0,0.1,0c0-0.1,0-0.1-0.1-0.2
		c0-0.3,0.1-0.5,0.1-0.8c0-0.1,0-0.1,0-0.2c0.1-0.5,0.2-0.9,0.5-1.2c0.4-0.2,0.7-0.4,1.2-0.5c0,0,0.1,0,0.1,0c0.2,0,0.4-0.1,0.6-0.1
		c0.3,0,0.6,0,0.8-0.3c0.2-0.3,0.4-0.6,0.6-0.9c0.1-0.2,0.1-0.2,0.2-0.2c0.1-0.4,0.1-0.8,0.1-1.2c0-0.1,0-0.3,0.1-0.4
		c-0.1,0-0.1,0-0.2,0.1c-1,0.4-2,0.5-3.1,0.5c-0.1,0-0.1,0-0.1,0c-0.4,0-0.7,0-1.1-0.1c0,0-0.1,0-0.1,0c-1.2-0.3-2.2-1-2.9-2
		c-0.2-0.3-0.5-0.8-0.5-1.2c0,0-0.1,0-0.1-0.1C1,14.2,1,14,1,13.9c-0.1-0.4-0.1-0.8-0.3-1.1c-0.3-0.6-0.4-1.3-0.2-1.9
		c0.1-0.2,0.2-0.5,0.4-0.6c0,0,0.1,0,0.1,0c0,0,0-0.1,0-0.1c0,0,0.1,0,0.1-0.1c0.3-0.1,0.5-0.3,0.8-0.5c0.3-0.1,0.5-0.2,0.8-0.2
		c0.2,0,0.2,0,0.4-0.1c0.4-0.1,0.7-0.1,1.1,0.2C4.3,9.6,4.5,9.8,4.6,10c0,0,0,0.1,0.1,0.1c0,0.1,0,0.2,0,0.3c0,0.3,0.1,0.4,0.3,0.6
		c0.1,0.3,0.1,0.6,0,1c-0.2,0.5-0.6,0.9-1.1,1.1c0,0-0.1,0-0.1,0c0.2,0.7,0.4,1.3,1.1,1.7c0,0,0.1,0,0.1,0c0,0,0,0.1,0,0.1
		c0.1,0,0.2,0,0.3,0c0,0,0,0.1,0,0.1c1,0.2,1.9,0.2,2.8-0.1c0,0-0.1,0-0.1-0.1c-0.3-0.2-0.6-0.5-0.9-0.7c-0.1,0-0.1-0.1-0.2-0.1
		c-0.6-0.5-1.1-1.2-1.5-1.9c0-0.1,0-0.1,0-0.2c0,0-0.1,0-0.1-0.1C5.3,12,5.3,12,5.2,11.8c0,0,0-0.1-0.1-0.1c0-0.1,0-0.1-0.1-0.2
		c0-0.1,0-0.1-0.1-0.2c-0.1-0.3-0.2-0.7-0.3-1c0-0.1,0-0.1-0.1-0.2C4.2,8.6,4.2,8.6,4.2,8.2c0,0-0.1,0-0.1-0.1c0-0.1,0-0.1,0-0.2
		c0-0.1,0-0.3-0.1-0.4c0,0,0-0.1,0-0.1C4,7.1,4,6.9,3.9,6.6C3.8,5.9,3.7,5.2,3.7,4.4c0-0.1,0-0.1,0-0.2c0,0,0-0.1,0-0.1
		c0-0.1,0-0.1,0-0.3c0-0.2,0-0.4,0-0.6c0-0.1,0-0.1,0-0.2C3.7,2.3,4,1.9,4.5,1.5C5,1,5.6,0.9,6.2,0.7c0.1,0,0.2-0.1,0.3-0.1
		C7.9,0.1,9.4,0.1,10.9,0z M8.5,0.7c-0.1,0-0.1,0-0.2,0C6.9,0.9,5.4,1.2,4.4,2.2c-0.8,1.1-0.2,3.5,0,4.7c0.3,2.1,0.8,4.6,2.2,6.3
		c0,0.1,0.1,0.1,0.1,0.2c0,0,0.1,0,0.1,0c0,0,0,0.1,0,0.1c0.1,0.1,0.1,0.2,0.2,0.3c0,0,0.1,0,0.1,0c0,0,0,0.1,0,0.1
		C7.4,14,7.4,14,7.6,14.1c0,0,0.1,0.1,0.1,0.1c0.1,0.1,0.1,0.1,0.2,0.1c0,0,0,0.1,0,0.1c0.1,0.1,0.2,0.1,0.3,0.2
		c0.7,0.5,1.2,1,1.3,1.8c0.1,1,0.1,2.3-0.5,3.1c-0.1,0.1-0.1,0.1-0.1,0.2c0,0-0.1,0-0.1,0c-0.2,0.2-0.3,0.4-0.4,0.7
		c0,0.2,0.1,0.2,0.3,0.3c0.8,0.3,1.6,0.3,2.5,0.3c0.1,0,0.3,0,0.4,0c0.7,0,1.4,0,2.1-0.3c0.1,0,0.1,0,0.2-0.1
		c0.2-0.1,0.2-0.1,0.3-0.2c0-0.3,0-0.5-0.2-0.7c0,0-0.1-0.1-0.1-0.1c-0.1-0.1-0.1-0.1-0.2-0.2c0,0-0.1-0.1-0.1-0.1
		c-0.5-0.7-0.6-1.7-0.4-2.5c0.2-1.3,0.9-2,2-2.8c0.1,0,0.1-0.1,0.2-0.1c0,0,0-0.1,0-0.1c0,0,0.1,0,0.1,0c0,0,0-0.1,0-0.1
		c0,0,0.1,0,0.1,0c0.1-0.1,0.2-0.1,0.3-0.2c0,0,0-0.1,0-0.1c0,0,0.1,0,0.1,0c1.9-2.2,2.2-5.6,2.5-8.4c0-0.1,0-0.2,0-0.3
		c0-0.4,0.1-0.8,0.1-1.2c0-0.1,0-0.1,0-0.2c0-0.5-0.1-0.8-0.4-1.2c0,0-0.1-0.1-0.1-0.1c0,0-0.1-0.1-0.1-0.1c0,0-0.1,0-0.1,0
		c0,0,0-0.1,0-0.1C15.1,0.4,11.6,0.3,8.5,0.7z M13.6,17.1c0,0.2,0,0.4,0,0.6c0,0.1,0,0.1,0,0.2c0,0.6,0.1,1,0.4,1.5
		c0,0,0.1-0.1,0.1-0.1c0.3-0.3,0.5-0.5,0.9-0.6c0.2-0.1,0.2-0.1,0.3-0.2c0.1-0.2,0.1-0.3,0-0.6C14.9,17.4,14.2,17.2,13.6,17.1z"/>
	<path class="st7" d="M8.1,20.6c0,0.1,0,0.1,0.1,0.2c0.1,0.3,0.3,0.4,0.6,0.5c0.1,0,0.1,0,0.2,0.1c0.1,0,0.1,0,0.2,0.1
		c0.7,0.2,1.5,0.2,2.2,0.2c0,0,0.1,0,0.1,0c1.4,0,1.4,0,2.7-0.4c0,0,0.1,0,0.1-0.1c0.1-0.1,0.1-0.1,0.2-0.3c0-0.1,0-0.1,0-0.2
		c0.8,0,1.8,0.1,2.4,0.6c0.3,0.6,0.4,1.4,0.5,2.1c0,0.1,0,0.1,0,0.2c0,0.2,0,0.4,0,0.7c-0.7,0.9-2.7,0.9-3.8,1
		C7,25.8,7,25.8,5.3,24.4c-0.2-0.3-0.2-0.7-0.1-1c0,0,0-0.1,0-0.1c0-0.1,0-0.2,0-0.3c0-0.1,0-0.3,0.1-0.4c0.2-1.2,0.2-1.2,0.5-1.5
		C6,21,6.2,20.9,6.5,20.8c0,0,0.1,0,0.1,0C7.1,20.7,7.6,20.6,8.1,20.6z"/>
	<path class="st8" d="M4.1,9.4C4.3,9.6,4.5,9.8,4.6,10c0,0.1,0,0.1,0.1,0.1c0,0.1,0,0.2,0,0.3c0,0.3,0.1,0.4,0.3,0.6
		c0.1,0.3,0.1,0.6,0,1c-0.2,0.5-0.6,0.9-1.1,1.1c0,0-0.1,0-0.1,0c0.2,0.7,0.4,1.3,1.1,1.7c0,0,0.1,0,0.1,0c0,0,0,0.1,0,0.1
		c0.1,0,0.2,0,0.3,0c0,0,0,0.1,0,0.1c1,0.2,1.9,0.2,2.8-0.1c0,0-0.1,0-0.1-0.1c-1.1-0.9-1.1-0.9-1.4-1.3c0-0.1,0-0.1,0-0.2
		c0,0-0.1,0-0.1,0c0-0.1,0-0.2-0.1-0.3c0.1,0,0.2-0.1,0.2-0.1c0,0.1,0.1,0.2,0.1,0.2c0,0,0.1,0,0.1,0c0.1,0.1,0.2,0.2,0.3,0.4
		c0,0,0.1,0,0.1,0.1c0,0,0,0.1,0,0.1c0,0,0.1,0,0.1,0c0.2,0.1,0.4,0.2,0.6,0.4c0,0,0,0.1,0,0.1c0,0,0.1,0,0.1,0
		c0.2,0.1,0.4,0.2,0.5,0.4c0,0,0.1,0.1,0.1,0.1c0.6,0.6,0.9,1.2,1,2c0,0.9,0,1.7-0.5,2.5c0,0,0,0.1-0.1,0.1
		c-0.1,0.1-0.1,0.1-0.2,0.2c0,0-0.1,0-0.1,0c0,0,0,0.1,0,0.1c-0.1,0.1-0.1,0.1-0.2,0.3c-0.1,0.2-0.1,0.3-0.1,0.5
		c0.3,0.2,0.7,0.3,1,0.3c0,0,0.1,0,0.1,0c0.5,0.1,1.1,0.1,1.6,0.1c0,0,0.1,0,0.1,0c0.8,0,1.5,0,2.2-0.3c0.1,0,0.1,0,0.2-0.1
		c0.1,0,0.1,0,0.2-0.1c0-0.3,0-0.5-0.2-0.7c0-0.1,0-0.1-0.1-0.1c-0.4-0.6-0.7-1.2-0.7-1.9c0.1-0.1,0.1-0.1,0.3-0.1
		c0-0.2,0-0.5,0.1-0.7c0,0,0,0,0.1,0c0,0,0,0.1,0,0.1c0,0.2,0,0.3,0,0.5c0,0.1,0,0.1,0,0.2c0,0.5,0.1,1,0.4,1.4c0.1,0,0.1,0,0.2,0.1
		c0-0.1,0.1-0.1,0.1-0.2c0.2-0.1,0.2-0.1,0.3-0.1c0.1,0.2,0.1,0.2,0,0.4c0,0-0.1,0-0.1,0c0,0.1,0,0.2,0,0.3c0,0,0,0.1,0,0.1
		c0,0.1,0,0.2,0.1,0.4c0,0,0.1,0,0.1,0c0.7,0.1,1.3,0.2,1.9,0.4c0,0-0.1,0-0.1,0.1c0,0.1,0,0.1,0.1,0.2c-0.1,0-0.2,0-0.4,0
		c0,0,0-0.1,0-0.1c-0.1,0-0.1,0-0.2,0c-0.5,0-0.9,0-1.3-0.1c0,0,0,0.1,0,0.1c-0.1,0.2-0.1,0.3-0.3,0.5c-1.3,0.8-3.7,0.6-5.1,0.2
		c-0.4-0.1-0.6-0.2-0.9-0.5c0-0.2,0-0.3-0.1-0.5c-0.1,0-0.3,0-0.4,0c0,0,0-0.1-0.1-0.1c0,0,0.1,0,0.1,0c0.1,0,0.1,0,0.1-0.1
		c0.1,0,0.1,0,0.1-0.1c0.2-0.1,0.3-0.2,0.4-0.3c0.1-0.1,0.1-0.1,0.3-0.3c0-0.1,0-0.1,0.1-0.3c0,0,0-0.1,0-0.1c0,0,0-0.1,0-0.1
		c0-0.1,0-0.2,0.1-0.2c0,0,0.1,0,0.1,0c0.1-0.4,0.1-0.8,0.1-1.2c0-0.1,0-0.3,0.1-0.4c-0.1,0-0.1,0-0.2,0.1c-1,0.4-2,0.5-3.1,0.5
		c-0.1,0-0.1,0-0.1,0c-0.4,0-0.7,0-1.1-0.1c0,0-0.1,0-0.1,0c-1.2-0.3-2.2-1-2.9-2c-0.2-0.3-0.5-0.8-0.5-1.2c0,0-0.1,0-0.1-0.1
		C1,14.2,1,14,1,13.9c-0.1-0.4-0.1-0.8-0.3-1.1c-0.3-0.6-0.4-1.3-0.2-1.9c0.1-0.2,0.2-0.5,0.4-0.6c0,0,0.1,0,0.1,0c0,0,0-0.1,0-0.1
		c0,0,0.1,0,0.1-0.1c0.3-0.1,0.5-0.3,0.8-0.5c0.3-0.1,0.5-0.2,0.8-0.2c0.2,0,0.2,0,0.4-0.1C3.4,9.2,3.8,9.2,4.1,9.4z"/>
	<path class="st9" d="M8.8,12.3c0.1,0,0.3,0,0.4,0c0,0,0,0.1,0.1,0.1c0.3,0.8,0.7,1.6,1.5,2c0.4,0.2,1,0.2,1.4,0.1
		c0.3-0.1,0.5-0.3,0.7-0.5c0,0,0.1,0,0.1,0c0,0,0-0.1,0-0.1c0.1-0.2,0.2-0.3,0.4-0.4c0.1,0,0.1,0,0.2,0c0,0,0,0.1,0.1,0.1
		c0.1,0.1,0.1,0.1,0.2,0.2c0,0,0,0.1-0.1,0.1c0,0,0.1,0,0.1,0.1c0,0.1,0,0.1,0.1,0.1c0.1-0.1,0.2-0.1,0.4-0.2c0,0.1,0,0.2,0,0.3
		c0,0,0,0.1,0,0.1c0,0.1,0,0.1,0,0.1c-0.1,0.1-0.1,0.1-0.1,0.1c0,0.1,0,0.1,0,0.2c0,0.2,0,0.2-0.1,0.4c-0.1,0-0.1,0.1-0.2,0.1
		c-0.7,0.6-0.9,1.4-1,2.3c-0.1,1.2,0.3,2,1,2.9c-0.1,0.1-0.1,0.1-0.2,0.2c-1.2,0.3-3,0.6-4.2,0c-0.1-0.1-0.1-0.1-0.1-0.3
		c0.1-0.2,0.2-0.4,0.4-0.6c0.4-0.5,0.5-1.2,0.5-1.8c0-0.1,0-0.1,0-0.2c0-0.2,0-0.3,0-0.5c0-0.4,0-0.8,0.3-1.1
		c0.3-0.3,0.7-0.4,1.1-0.6c-0.1,0-0.1,0-0.2,0c-1.2,0-2.2-0.5-3.2-1.3c-0.1,0-0.1-0.1-0.2-0.1c0.1-0.1,0.1-0.1,0.2-0.2
		c0-0.1,0-0.1,0.1-0.2c0.1,0,0.1,0,0.2,0c0,0,0-0.1,0.1-0.1c-0.1,0-0.2,0-0.2,0.1c0-0.1,0-0.1,0-0.2c0,0,0.1,0,0.1,0
		c0-0.1,0-0.2,0-0.2c0,0,0.1,0,0.1-0.1c-0.1-0.2-0.2-0.3-0.4-0.4c0,0,0-0.1,0.1-0.1c0.1,0,0.2,0,0.2,0C8.8,12.4,8.8,12.4,8.8,12.3z"
		/>
	<path class="st10" d="M10.9,0c1.7-0.1,3.8,0.1,5.5,0.7c0.3,0.1,0.3,0.1,0.6,0.1c0,0,0,0.1,0,0.1c0.1,0,0.1,0,0.2-0.1
		c0,0,0,0.1,0,0.1c0,0,0.1,0,0.1,0c0.7,0.2,1.3,0.6,1.6,1.2c0.7,1.4,0.1,3.6-0.1,5.1c0,0.1,0,0.3-0.1,0.4c-0.2,1.5-0.6,3-1.2,4.4
		c0,0.1,0,0.1-0.1,0.2c0,0-0.1,0-0.1,0c0,0.1,0,0.1-0.1,0.2c0,0.1,0,0.1-0.1,0.2c0,0,0,0.1,0,0.2c-0.1,0.2-0.2,0.3-0.4,0.4
		c-0.2,0.2-0.4,0.5-0.5,0.7c-0.1,0.2-0.3,0.3-0.5,0.5c-0.1,0.1-0.1,0.1-0.2,0.2c-0.1,0.1-0.3,0.2-0.4,0.3C15,15,15,15,14.9,15.1
		c0,0-0.1,0.1-0.1,0.1c0.1,0.1,0.1,0.1,0.1,0.1c0.1,0.1,0.1,0.1,0.1,0.3c0,0,0,0.1,0,0.1c0,0,0.1,0,0.1,0.1c0,0-0.1,0-0.1,0
		c-0.3-0.1-0.5-0.1-0.8-0.2c-0.1,0.1-0.1,0.2-0.2,0.2c0,0-0.1,0.1-0.1,0.1c-0.1,0.2-0.2,0.4-0.3,0.7c0.1,0,0.1,0,0.2,0.1
		c1.4,0.4,1.4,0.4,1.8,1c0.1,0.2,0.1,0.5,0.1,0.8c-0.1,0.2-0.1,0.2-0.2,0.4c0,0.1,0,0.1-0.1,0.2c-0.1,0.1-0.1,0.1-0.3,0.1
		c-0.2,0-0.4,0.1-0.6,0.2c-0.1-0.1-0.1-0.1-0.1-0.2c-0.2,0.1-0.3,0.2-0.4,0.3c0-0.2,0.1-0.3,0.3-0.4c0.1-0.1,0.2-0.2,0.3-0.3
		c0.1,0,0.2,0,0.3,0c0.2,0,0.2,0,0.4-0.2c0-0.2,0-0.4,0-0.6c-0.4-0.4-1.1-0.6-1.7-0.8c-0.1,0.1-0.1,0.3-0.1,0.5c0,0,0,0.1,0,0.1
		c0,0.1,0,0.2,0,0.3c0,0-0.1,0-0.1,0c-0.2,0-0.2,0-0.3,0c-0.1-0.9,0.1-1.9,0.7-2.6c0.4-0.4,1-1.1,1.6-1.3c0,0,0-0.1,0-0.1
		c0,0,0.1,0,0.1,0c0,0,0-0.1,0-0.1c0.1-0.1,0.2-0.2,0.4-0.3c0,0,0-0.1,0.1-0.1c0,0,0.1,0,0.1,0c0,0,0-0.1,0-0.1
		c0.1-0.2,0.2-0.3,0.3-0.5c1.5-2.2,1.8-5.2,2-7.8c0-0.1,0-0.2,0-0.3c0-0.4,0.1-0.8,0.1-1.2c0-0.1,0-0.1,0-0.2c0-0.6-0.1-0.9-0.5-1.4
		C18,2,18,2,17.9,2c0,0,0-0.1,0-0.1c0,0-0.1,0-0.1,0c-0.2-0.1-0.3-0.1-0.5-0.2C16,1,14.4,0.8,13,0.6c-0.1,0-0.1,0-0.2,0
		c-0.5,0-1-0.1-1.5-0.1c0,0-0.1,0-0.1,0c-0.9,0-1.8,0.1-2.6,0.2c-0.1,0-0.1,0-0.2,0C7,1,5.3,1.2,4.4,2.3c-0.2,0.3-0.3,0.6-0.3,1
		c0,0.1,0,0.1,0,0.1c0.1,3.1,0.5,7,2.4,9.5c0.1,0.1,0.1,0.1,0.1,0.2c0,0-0.1,0-0.1,0.1c0,0.1,0,0.2,0,0.3c0,0,0.1,0,0.1,0
		c0.1,0.1,0.1,0.2,0.2,0.3C6.8,13.9,6.9,14,7,14.1c0,0,0,0.1-0.1,0.1c-0.6-0.5-1.1-1.2-1.5-1.9c0-0.1,0-0.1,0-0.2c0,0-0.1,0-0.1-0.1
		C5.3,12,5.3,12,5.2,11.8c0,0,0-0.1-0.1-0.1c0-0.1,0-0.1-0.1-0.2c0-0.1-0.1-0.1-0.1-0.2c-0.1-0.3-0.2-0.7-0.3-1c0-0.1,0-0.1-0.1-0.2
		C4.2,8.6,4.2,8.6,4.2,8.2c0,0-0.1,0-0.1-0.1c0-0.1,0-0.1,0-0.2c0-0.1,0-0.3-0.1-0.4c0,0,0-0.1,0-0.1C4,7.1,4,6.9,3.9,6.6
		C3.8,5.9,3.7,5.2,3.7,4.4c0-0.1,0-0.1,0-0.2c0,0,0-0.1,0-0.1c0-0.1,0-0.1,0-0.3c0-0.2,0-0.4,0-0.6c0-0.1,0-0.1,0-0.2
		C3.7,2.3,4,1.9,4.5,1.5C5,1,5.6,0.9,6.2,0.7c0.1,0,0.2-0.1,0.3-0.1C7.9,0.1,9.4,0.1,10.9,0z"/>
	<path class="st11" d="M1.7,10.3c0,0,0.1,0,0.1,0c0.1,0,0.2,0.1,0.4,0.1c0,0,0,0.1,0,0.1c0,0,0.1,0,0.1,0c0.2,0.3,0.3,0.6,0.3,0.9
		c-0.1,0.2-0.2,0.3-0.4,0.4c-0.2,0-0.3,0-0.5-0.2c-0.1-0.1-0.2-0.2-0.3-0.4c0,0.3,0,0.3,0.1,0.6c0.2,0.2,0.4,0.2,0.7,0.2
		c0.3-0.1,0.4-0.2,0.6-0.4c0,0.1,0,0.1,0.1,0.1C3,12.2,3,12.2,3.1,12.3c0.4,0,0.6-0.1,0.9-0.3C4,12,3.9,12,3.9,12
		c-0.1,0-0.2,0-0.3,0c-0.1,0-0.1,0-0.2,0c-0.1,0-0.1,0-0.3-0.1c0-0.2,0-0.3,0.1-0.5C3.5,11.2,3.7,11,3.9,11c0.2,0,0.4,0,0.6,0.1
		c0.1,0.2,0.1,0.4,0.1,0.6c-0.2,0.6-0.7,1-1.3,1.3c-0.1,0-0.2,0.1-0.3,0.1c0,0,0.1,0,0.1,0c0.2,0.1,0.2,0.1,0.2,0.2
		c0,0.1,0,0.1,0,0.2c0.1,0.4,0.3,0.7,0.4,1.1c0,0.1,0.1,0.2,0.1,0.2c0,0,0.1,0,0.1,0c0,0,0,0.1,0,0.1c0,0,0.1,0,0.1,0
		c0,0,0,0.1,0,0.1c0,0,0.1,0,0.1,0c0.1,0,0.2,0.1,0.3,0.2c1.2,0.6,2.4,0.5,3.7,0.2c0,0,0.1,0,0.1,0c0.1,0,0.1,0,0.1,0
		c0.3,0.3,0.5,0.7,0.6,1.1c0,0.1,0,0.1,0,0.2c-1.5,0.7-3.5,0.9-5.1,0.3c-1.1-0.4-1.8-1.1-2.4-2.1c-0.2-0.5-0.3-0.9-0.4-1.4
		c-0.1-0.4-0.2-0.6-0.3-1c-0.2-0.5-0.3-1-0.1-1.5c0.1-0.3,0.2-0.5,0.4-0.6C1.5,10.3,1.6,10.3,1.7,10.3z"/>
	<path class="st12" d="M4.9,1.8C5,1.9,5,2,4.9,2.2c0,0.2,0,0.4,0,0.6c0,0,0,0.1,0,0.1c0,0.5,0.1,1,0.1,1.5c0,0.1,0,0.1,0,0.2
		C5.2,7,5.6,9.7,6.8,11.9c0,0.1,0.1,0.1,0.1,0.2c0.3,0.6,0.8,1.2,1.4,1.6c0,0,0.1,0,0.1,0.1c0,0,0,0.1,0,0.1c0,0,0.1,0,0.1,0
		c0.2,0.1,0.3,0.2,0.5,0.3c1,0.7,1.9,1,3.1,1c-0.2,0.2-0.4,0.2-0.6,0.3c-0.3,0.1-0.5,0.2-0.7,0.5c-0.1,0.2-0.1,0.5-0.1,0.7
		c0,0.1,0,0.1,0,0.2c0,0.1,0,0.3,0,0.4c0,0.6-0.1,1.2-0.4,1.8c0,0.1-0.1,0.1-0.1,0.2c-0.1,0.1-0.2,0.3-0.3,0.4
		c-0.1,0.2-0.2,0.3-0.2,0.5c0,0.1,0,0.1,0.1,0.2c1.4,0.4,3.1,0.3,4.4-0.1c0,0.2,0,0.2,0,0.4C14,20.9,13.7,21,13.5,21
		c0,0-0.1,0-0.1,0c-0.7,0.2-1.3,0.2-2,0.2c-0.1,0-0.1,0-0.1,0c-0.6,0-1.1,0-1.6-0.1c0,0-0.1,0-0.1,0c-0.3-0.1-0.7-0.2-0.9-0.4
		c-0.1-0.3,0.1-0.5,0.3-0.8c0,0,0.1-0.1,0.1-0.1c0,0,0.1,0,0.1,0c0,0,0-0.1,0-0.1c0.1-0.2,0.1-0.2,0.2-0.3c0.5-0.8,0.5-2,0.4-2.9
		c-0.2-0.9-0.8-1.5-1.5-1.9c0,0-0.1-0.1-0.1-0.1c0,0,0-0.1,0-0.1c0,0,0,0-0.1,0c-0.2-0.1-0.4-0.2-0.6-0.4c0,0,0-0.1,0-0.1
		c0,0-0.1,0-0.1,0c-0.1-0.1-0.2-0.1-0.3-0.2c0,0,0-0.1,0-0.1c0,0-0.1,0-0.1,0C4.6,11,4.1,6.5,4.1,3.4c0,0,0-0.1,0-0.1
		c0-0.4,0.1-0.8,0.4-1.1c0,0,0.1-0.1,0.1-0.1c0,0,0.1-0.1,0.1-0.1C4.8,1.8,4.8,1.8,4.9,1.8z"/>
	<path class="st13" d="M8.1,20.6c0,0.1,0,0.1,0.1,0.2c0.1,0.3,0.3,0.4,0.6,0.5c0.1,0,0.1,0,0.2,0.1c0.1,0,0.1,0,0.2,0.1
		c0.8,0.2,1.7,0.2,2.6,0.2c0.1,0,0.3,0,0.4,0c0.3,0,0.6,0,0.9,0c-0.4,0.2-0.9,0.2-1.4,0.2c0,0,0,0-0.1,0.1c-0.1,0-0.3,0-0.4,0
		c0,0-0.1,0-0.1,0c-0.1,0-0.3,0-0.4,0c0,0-0.1,0-0.1,0c-1.2,0-2.3-0.1-3.4-0.4c0,0-0.1,0-0.2,0c0,0-0.1,0-0.1,0c-0.1,0-0.2,0-0.4,0
		c0.8,0.7,2.6,0.7,3.6,0.7c0.2,0,0.4,0,0.6,0.1c0,0,0,0.1-0.1,0.1c-0.1,0-0.2,0-0.3-0.1c0,0.1,0,0.1-0.1,0.2c-0.1,0-0.1,0-0.1,0.1
		c0,0.1,0,0.1,0.1,0.2c-0.1,0-0.2-0.1-0.3-0.1c0,0.1,0,0.1,0,0.2c-0.1,0.1-0.2,0.2-0.3,0.4c0,0.1,0.1,0.1,0.1,0.2
		c-0.1,0.1-0.1,0.1-0.2,0.1c0.1,0.1,0.2,0.2,0.3,0.3c-0.1,0.1-0.1,0.1-0.1,0.1c-0.2,0-0.2,0-0.3-0.1c0,0,0,0.1,0,0.1
		c-0.1,0.2-0.2,0.2-0.4,0.3c-0.1,0-0.1-0.1-0.2-0.1c0,0.1,0,0.1-0.1,0.1c-0.1,0-0.2,0-0.2-0.1c0,0.1,0,0.1-0.1,0.2c0,0-0.1,0-0.1,0
		c0,0.1,0,0.1-0.1,0.3c0.1,0.1,0.1,0.1,0.1,0.1c0.1,0,0.2,0,0.2,0c0-0.1,0.1-0.2,0.1-0.3c0.1,0.1,0.1,0.1,0.2,0.2
		C8.6,25,8.6,25,8.5,25.1c-1,0.1-2.4-0.1-3.2-0.7c-0.1-0.2-0.1-0.3-0.1-0.5c0-0.1,0-0.1,0-0.2c0-0.3,0.1-0.7,0.1-1
		c0-0.1,0-0.2,0.1-0.4c0-0.1,0-0.2,0-0.2c0-0.1,0-0.1,0-0.2c0.1-0.3,0.1-0.5,0.4-0.8C6,21,6.3,20.9,6.5,20.9c0,0,0.1,0,0.1,0
		C7.1,20.7,7.6,20.6,8.1,20.6z"/>
	<path class="st9" d="M14.3,15.5c1.1,0.2,2.5,0.7,3.2,1.7c0.3,0.4,0.3,0.8,0.3,1.3c-0.1,0.4-0.2,0.7-0.5,1c0,0.1-0.1,0.1-0.1,0.2
		c0,0-0.1,0-0.1,0c0,0.1,0,0.1,0,0.1c0,0.1,0,0.1,0,0.2c0,0.1,0,0.1,0,0.2c0,0.2-0.1,0.3-0.2,0.5c-0.1,0-0.1,0-0.2-0.1
		c-0.6-0.2-1.1-0.3-1.7-0.4c-0.4-0.1-0.4-0.1-0.5-0.2c0-0.2-0.1-0.4,0-0.6c0,0,0-0.1,0.1-0.1c0,0,0.1,0,0.1,0c0,0,0-0.1,0-0.1
		c0.2-0.1,0.4-0.2,0.7-0.3c0.1,0,0.2-0.1,0.3-0.2c0.2-0.3,0.2-0.7,0.2-1c-0.1-0.4-0.5-0.5-0.8-0.7c-0.3-0.1-0.6-0.2-0.8-0.3
		c-0.1,0-0.2-0.1-0.3-0.1c-0.1-0.1-0.1-0.1,0-0.2C13.8,16.1,14,15.8,14.3,15.5z"/>
	<path class="st14" d="M1.7,10.3c0,0,0.1,0,0.1,0c0.1,0,0.2,0.1,0.4,0.1c0,0,0,0.1,0,0.1c0,0,0.1,0,0.1,0c0.2,0.3,0.3,0.6,0.3,0.9
		c-0.1,0.2-0.2,0.3-0.4,0.4c-0.2,0-0.3,0-0.5-0.2c-0.1-0.1-0.2-0.2-0.3-0.4c0,0.3,0,0.3,0.1,0.6c0.2,0.2,0.4,0.2,0.7,0.2
		c0.3-0.1,0.4-0.2,0.6-0.4c0,0,0,0.1,0.1,0.1C3,12.1,3,12.1,3,12.3c-0.3,0.2-0.6,0.2-0.9,0.3c-0.1,0-0.1,0-0.2,0.1
		c-0.1,1,0.3,2.1,0.9,2.8c0.3,0.3,0.6,0.5,0.9,0.7c0,0,0.1,0.1,0.1,0.1C5,16.8,6.5,17,7.6,16.6c0.1,0,0.1,0,0.2-0.1
		c0-0.3,0-0.3-0.1-0.5c-0.1-0.1-0.2-0.2-0.4-0.3c0.2-0.1,0.3-0.1,0.5-0.2c0,0,0.1,0,0.1,0c0,0,0.1,0,0.1,0c0,0,0.1,0,0.1,0
		c0.1,0,0.1,0,0.3,0c0.3,0.3,0.5,0.7,0.5,1.2c-1.5,0.7-3.5,0.9-5.1,0.3c-1.1-0.4-1.8-1.1-2.4-2.1c-0.2-0.5-0.3-0.9-0.4-1.4
		c-0.1-0.4-0.2-0.6-0.3-1c-0.2-0.5-0.3-1-0.1-1.5c0.1-0.3,0.2-0.5,0.4-0.6C1.5,10.3,1.6,10.3,1.7,10.3z"/>
	<path class="st15" d="M9.7,11.2c0,0,0.1,0.1,0.1,0.1c-0.1,0-0.2,0-0.2,0.1c0,0,0,0.1,0,0.1c0,0,0.1,0,0.1,0
		c0.2,0.1,0.2,0.1,0.4,0.2c1,0.5,2.2,0.6,3.3,0.4c0.1,0,0.2-0.1,0.3-0.1c0.2-0.1,0.3-0.1,0.5,0c0,0.1,0,0.1-0.1,0.3
		c-0.1,0-0.1,0-0.1,0.1c-0.2,0.1-0.2,0.3-0.3,0.5c-0.1,0.4-0.3,0.8-0.6,1.1c0,0-0.1,0-0.1,0c0,0,0,0.1,0,0.1
		c-0.1,0.2-0.2,0.2-0.4,0.3c-0.1,0-0.1,0.1-0.2,0.1c-0.4,0.2-0.9,0.2-1.4,0.1c-0.1-0.1-0.2-0.1-0.4-0.2c-0.1,0-0.1-0.1-0.2-0.1
		c-0.8-0.6-1.2-1.4-1.3-2.3c0-0.1,0-0.1,0-0.2c-0.1,0-0.2,0.1-0.4,0.1c0-0.2,0-0.3,0.1-0.5C9.1,11.2,9.4,11.2,9.7,11.2z"/>
	<path class="st8" d="M4,9.3c0.1,0.1,0.3,0.2,0.4,0.3c0,0,0,0.1-0.1,0.1c-0.1,0-0.1,0-0.2,0c0,0-0.1,0.1-0.1,0.1
		c0,0-0.1-0.1-0.1-0.1C3.6,9.6,3.5,9.7,3.2,9.7c0,0,0.1,0.1,0.1,0.1c0.3,0.3,0.3,0.3,0.3,0.5c0,0.3-0.1,0.4-0.3,0.6
		c0-0.1,0-0.1,0-0.1c-0.1-0.4-0.1-0.4-0.2-0.7C3,9.9,3,9.9,2.9,9.9c0,0-0.1,0-0.1-0.1c-0.1,0-0.1,0-0.3,0c0,0-0.1,0-0.1,0
		c-0.1,0-0.1,0-0.3,0.1c0,0,0.1,0,0.1,0.1c0.5,0.3,0.7,0.6,0.8,1.1c0,0,0.1-0.1,0.1-0.1C3.2,11,3.2,11,3.3,11
		c0.1,0.4,0.1,0.4-0.1,0.6c0,0.2,0,0.2,0,0.4C3.3,12,3.3,12,3.4,12c0.1,0,0.1,0,0.2,0c0.1,0,0.1,0,0.2,0c0.1,0,0.3,0,0.4-0.1
		c-0.2,0.3-0.4,0.4-0.8,0.4c-0.2,0-0.2,0-0.4-0.1c-0.1-0.1-0.1-0.1-0.2-0.3c0,0-0.1,0.1-0.1,0.1c-0.2,0.2-0.3,0.2-0.6,0.2
		c-0.2-0.1-0.4-0.2-0.6-0.3c-0.1-0.2-0.1-0.4-0.1-0.7c0.1,0.1,0.1,0.1,0.2,0.3c0.1,0.1,0.1,0.2,0.2,0.3c0.2,0,0.3,0,0.5,0
		c0.1-0.1,0.2-0.2,0.2-0.4c0-0.3-0.1-0.5-0.2-0.7c0,0,0-0.1,0-0.1c0,0-0.1,0-0.1,0c0,0,0-0.1,0-0.1c-0.3-0.1-0.6-0.1-1,0
		c-0.3,0.3-0.4,0.6-0.4,1c0,0.4,0.1,0.8,0.3,1.2c0.2,0.3,0.2,0.6,0.3,0.9c0.1,1.1,0.6,2,1.4,2.7c1.2,0.9,2.8,1.1,4.3,0.9
		c0.3,0,0.5-0.1,0.8-0.2c0.2,0,0.2,0,0.4,0c-0.1,0-0.1,0-0.2,0.1c0,0.1,0,0.1,0,0.2c0.1,0,0.2,0,0.3,0c-0.2,0.3-0.6,0.3-0.9,0.4
		c-0.5,0.1-1.1,0.1-1.6,0.1c0,0-0.1,0-0.1,0c-0.4,0-0.7,0-1.1-0.1c0,0-0.1,0-0.1,0c-1.2-0.3-2.2-1-2.9-2c-0.2-0.3-0.5-0.8-0.5-1.2
		c0,0-0.1,0-0.1-0.1C1,14.2,1,14,1,13.9c-0.1-0.4-0.1-0.8-0.3-1.1c-0.3-0.6-0.4-1.3-0.2-1.9c0.1-0.2,0.2-0.5,0.4-0.6
		c0,0,0.1,0,0.1,0c0,0,0-0.1,0-0.1c0,0,0.1,0,0.1-0.1c0.3-0.1,0.5-0.3,0.8-0.5c0.3-0.1,0.5-0.2,0.8-0.2c0.2,0,0.2,0,0.4-0.1
		C3.4,9.2,3.7,9.2,4,9.3z"/>
	<path class="st16" d="M5.6,25c0.1,0,0.1,0,0.2,0.1c1.7,0.5,3.5,0.7,5.3,0.7c0.2,0,0.3,0,0.5,0c1,0,1.9,0,2.9-0.1c0.1,0,0.1,0,0.2,0
		c0.8-0.1,1.6-0.3,2.3-0.5c0,0.3,0,0.4-0.1,0.7c-1,1-3.6,1-4.9,1c-0.1,0-0.1,0-0.2,0c-1.6,0-3.3,0-4.8-0.4c0,0-0.1,0-0.1,0
		c-0.4-0.1-0.8-0.3-1.1-0.6C5.6,25.4,5.6,25.2,5.6,25z"/>
	<path class="st17" d="M14.6,20.6c0.8,0,1.8,0.1,2.4,0.6c0.3,0.6,0.4,1.4,0.5,2.1c0,0.1,0,0.1,0,0.2c0,0.2,0,0.4,0,0.7
		c-0.2,0.2-0.4,0.3-0.7,0.4c-0.1,0-0.1,0-0.2,0c0,0,0-0.1,0-0.1c0.1,0,0.2,0,0.3,0c0,0,0-0.1,0-0.1c0.1,0,0.1,0,0.2-0.1
		c0,0,0-0.1,0-0.1c0-0.1,0-0.1,0-0.2c0,0,0.1,0,0.1-0.1c0.1-0.1,0.1-0.1,0.2-0.3c0-0.1,0-0.1,0-0.2c0-0.1,0-0.2,0-0.2
		c0-0.1,0-0.1,0-0.2c0,0-0.1,0-0.1,0c0-0.1,0-0.1,0-0.2c0-0.1,0-0.2,0-0.3c0,0,0-0.1,0-0.1c0-0.2,0-0.2-0.1-0.4c0-0.1,0-0.2,0-0.3
		c0,0,0-0.1,0-0.1c0,0,0-0.1,0-0.1c0,0-0.1,0-0.2,0.1c-0.8,0.3-1.6,0.5-2.4,0.6c-0.1,0-0.1,0-0.2,0c-2.3,0.3-5.8,0.4-7.9-0.6
		c-0.1-0.1-0.1-0.1-0.2-0.2c0.2-0.1,0.4-0.1,0.7,0c0.1,0,0.1,0,0.2,0c0.1,0,0.1,0,0.2,0c0.2,0,0.3,0.1,0.5,0.1c0.1,0,0.2,0,0.2,0
		c0.8,0.1,1.6,0.2,2.5,0.2c0,0,0.1,0,0.1,0c0.1,0,0.3,0,0.4,0c0,0,0.1,0,0.1,0c0.2,0,0.2,0,0.4-0.1c0.1,0,0.3,0,0.4,0
		c0.3,0,0.6,0,1-0.1c0,0,0-0.1,0-0.1c0,0,0.1,0,0.2,0c0.4-0.1,0.7-0.2,1.1-0.3c0,0,0.1,0,0.1,0C14.5,21,14.5,20.8,14.6,20.6z"/>
	<path class="st18" d="M10,7.8c0.4,0.2,0.6,0.6,0.8,1c0.1,0.5,0.1,1-0.2,1.5c-0.3,0.3-0.5,0.5-1,0.6c-0.5,0-0.5,0-0.7-0.1
		c-0.1-0.1-0.2-0.2-0.2-0.3c0,0,0-0.1-0.1-0.1C8.4,9.8,8.3,9.3,8.4,8.8c0.1-0.4,0.3-0.7,0.6-1C9.3,7.7,9.7,7.7,10,7.8z"/>
	<path class="st19" d="M14.6,7.9C15,8.2,15.2,8.5,15.2,9c0,0.5-0.1,1-0.4,1.4c-0.2,0.2-0.5,0.3-0.9,0.4c-0.5-0.1-0.5-0.1-0.7-0.3
		c-0.3-0.4-0.4-0.7-0.4-1.2c0,0,0-0.1,0-0.1c0-0.4,0.1-0.8,0.4-1.1C13.7,7.7,14.2,7.6,14.6,7.9z"/>
	<path class="st20" d="M17.9,1.9c0,0,0,0.1,0,0.1C18,2,18,2,18,2c0.3,0.2,0.4,0.4,0.5,0.7c0,0,0,0.1,0,0.2c-0.2-0.1-0.2-0.1-0.3-0.2
		c-0.8-1-2.5-1.2-3.7-1.4c-0.1,0-0.1,0-0.2,0C13.3,1,12.4,1,11.4,1c-0.2,0-0.4,0-0.5,0C10.3,1,9.8,1,9.2,1c0,0-0.1,0-0.1,0
		c-0.3,0-0.3,0-0.5,0.2c0,0,0-0.1,0-0.1C7.5,1.3,6.4,1.5,5.3,2C5.2,2.1,5,2.2,4.9,2.2c0-0.2,0-0.4,0.1-0.5c0.2-0.2,0.5-0.3,0.7-0.4
		c0,0,0.1,0,0.1-0.1c1-0.3,2-0.5,3-0.7c0.1,0,0.1,0,0.2,0C11.8,0.2,15.4,0.4,17.9,1.9z"/>
	<path class="st21" d="M5.6,21.5c0.3,0,0.6,0.1,0.8,0.3c0.2,0.1,0.4,0.2,0.6,0.3c0,0.3,0,0.5-0.1,0.8c0,0-0.1,0-0.1,0
		c0,0,0,0.1,0.1,0.1c0,0.2,0,0.3,0,0.5c0,0,0,0.1,0,0.1c0,0.4-0.1,0.8-0.2,1.3c0.1,0,0.2,0,0.3,0.1c0,0,0,0,0,0.1
		c-0.6,0-1.3-0.2-1.8-0.6c-0.3-0.5,0-1.2,0.1-1.7c0-0.1,0-0.3,0.1-0.4c0-0.1,0-0.2,0-0.2c0-0.1,0-0.1,0-0.2
		C5.5,21.7,5.5,21.7,5.6,21.5z"/>
	<path class="st22" d="M5.6,25c0.1,0,0.1,0,0.2,0.1c1.7,0.5,3.5,0.7,5.3,0.7c0.2,0,0.3,0,0.5,0c1,0,1.9,0,2.9-0.1c0.1,0,0.1,0,0.2,0
		c0.8-0.1,1.6-0.3,2.3-0.5c0,0.1,0,0.2,0,0.3c-0.9,0.3-1.8,0.5-2.8,0.6C14,26,14,26,13.9,26c-0.1,0-0.2,0-0.3,0c-0.3,0-0.5,0-0.8,0
		c-0.6,0-1.2,0-1.7,0c-0.1,0-0.1,0-0.2,0c-3.2,0-3.2,0-3.6-0.4c-0.1,0.2,0,0.4,0.1,0.6C6.2,26,6.2,26,5.7,25.6
		C5.6,25.4,5.6,25.2,5.6,25z"/>
	<path class="st23" d="M3.2,9.6c0.3,0,0.6,0,0.8,0.2c0,0,0.1-0.1,0.1-0.1c0.1,0,0.1,0,0.3,0.1C4.5,9.9,4.5,9.9,4.6,10
		c0,0.1,0,0.1,0.1,0.1c0,0.1,0,0.2,0,0.3c0,0.3,0.1,0.4,0.3,0.6c0.1,0.3,0.1,0.6,0,1c-0.2,0.5-0.6,0.9-1.1,1.1c0,0-0.1,0-0.1,0
		c0,0.1,0,0.1,0,0.2c-0.1,0.1-0.1,0.1-0.2,0.2c0,0-0.1-0.1-0.1-0.1c-0.1-0.2-0.2-0.2-0.4-0.3c0.2-0.1,0.4-0.2,0.6-0.3
		c0.5-0.2,0.8-0.5,1-1c0.1-0.2,0.1-0.5,0-0.7c-0.3-0.1-0.6-0.1-0.8,0c-0.1,0.1-0.2,0.1-0.3,0.2c0,0-0.1,0-0.1,0c0-0.1,0-0.2,0-0.4
		c-0.1,0.1-0.2,0.2-0.4,0.2c0,0,0-0.1,0-0.1c-0.1-0.4-0.3-0.7-0.7-0.9c-0.1,0-0.1-0.1-0.2-0.1C2,9.9,2,9.9,2.2,9.8
		c0.3-0.1,0.5-0.1,0.8,0c0.3,0.2,0.4,0.5,0.5,0.8c0,0.1,0,0.1,0,0.1c0.2-0.3,0.2-0.3,0.1-0.6c0-0.1-0.1-0.1-0.1-0.2
		c0,0,0-0.1-0.1-0.1C3.4,9.8,3.3,9.7,3.2,9.6C3.2,9.7,3.2,9.6,3.2,9.6z"/>
	<path class="st24" d="M9.9,2.2c0,0,0.1,0,0.1,0c0,0,0.1,0,0.1,0c0.1,0,0.1,0,0.2,0.1c0,0.1,0,0.2,0,0.2c0,0.1,0,0.1,0,0.2
		c0,0.1,0,0.1,0,0.2c0,0.1,0,0.1,0,0.2c0,0.4,0,0.8,0,1.2c0,0.1,0,0.1,0,0.2c0,0.1,0,0.1,0,0.1c0,0.1,0,0.1,0,0.1
		c0,0.1-0.1,0.2-0.2,0.3c-0.2,0-0.2,0-0.4,0C9.8,4.9,9.8,4.9,9.8,4.7c0-0.1,0-0.2,0-0.3c0,0,0-0.1,0-0.1c0-0.1,0-0.2,0-0.4
		c-0.3,0-0.5,0-0.8,0C9,4,9,4,9,4.1c0,0.1,0,0.2,0,0.3c0,0,0,0.1,0,0.2c0,0,0,0.1,0,0.1c0,0,0,0.1,0,0.1c0,0.1,0,0.1-0.1,0.2
		c-0.2,0-0.2,0-0.4,0C8.4,4.9,8.4,4.8,8.4,4.6c0-0.1,0-0.1,0-0.2c0-0.1,0-0.1,0-0.2c0-0.1,0-0.1,0-0.2c0-0.2,0-0.4,0-0.6
		c0-0.1,0-0.2,0-0.4c0-0.3,0-0.6,0-0.9c0.2-0.1,0.3-0.1,0.5-0.1C9,2.3,9,2.3,9,2.5c0,0.1,0,0.2,0,0.3c0,0,0,0.1,0,0.1
		c0,0.1,0,0.2,0,0.4c0.3,0,0.5,0,0.8,0c0-0.1,0-0.2,0-0.2c0-0.1,0-0.2,0-0.3c0-0.1,0-0.1,0-0.2c0-0.1,0-0.1,0-0.1c0-0.1,0-0.1,0-0.1
		C9.8,2.2,9.8,2.2,9.9,2.2z"/>
	<path class="st25" d="M8.7,15.5c0.3,0.3,0.5,0.7,0.5,1.2c-1.5,0.7-3.5,0.9-5.1,0.3C4.1,17,4,17,3.9,16.9c0,0,0.1,0,0.1-0.1
		c0,0,0-0.1,0-0.1c0.2-0.2,0.3-0.2,0.5-0.2c0.1,0,0.3,0.1,0.4,0.1c0.9,0.2,2.1,0.3,2.9-0.1c0-0.3,0-0.3-0.1-0.5
		c-0.1-0.1-0.2-0.2-0.4-0.3c0.2-0.1,0.3-0.1,0.5-0.2c0,0,0.1,0,0.1,0c0,0,0.1,0,0.1,0c0.1,0,0.1,0,0.1,0C8.5,15.5,8.5,15.5,8.7,15.5
		z"/>
	<path class="st26" d="M15.3,2.5c0.4,0.1,0.4,0.1,0.5,0.1c0,0.1,0,0.3,0,0.4c0,0,0,0.1,0,0.1c0,0.1,0,0.2,0,0.3
		c0-0.1,0.1-0.1,0.1-0.2c0-0.1,0.1-0.1,0.1-0.2c0,0,0-0.1,0.1-0.1c0.1-0.2,0.2-0.3,0.4-0.3c0.2,0,0.3,0,0.4,0.1
		c0,0.2-0.1,0.4-0.3,0.5c0,0-0.1,0-0.1,0c0,0,0,0.1,0,0.1c0,0-0.1,0-0.1,0c0,0,0,0.1-0.1,0.1c-0.1,0.1-0.1,0.1-0.2,0.2
		c0,0.2,0.1,0.3,0.2,0.5c0,0.1,0.1,0.1,0.1,0.2c0.1,0.1,0.1,0.2,0.2,0.3c0,0.1,0.1,0.1,0.1,0.2c0,0,0.1,0.1,0.1,0.1
		c0.1,0.2,0.1,0.2,0,0.4c-0.4,0-0.4,0-0.6-0.2c-0.2-0.2-0.3-0.4-0.4-0.7c-0.1-0.1-0.1-0.1-0.2-0.3c0,0.1,0,0.1,0,0.2
		c0,0.1,0,0.1,0,0.2c0,0.1,0,0.1,0,0.2c0,0.2,0,0.2-0.1,0.3c-0.2,0-0.2,0-0.4-0.1C15,5,15,5,15,4.8c0-0.1,0-0.1,0-0.2
		c0-0.1,0-0.1,0-0.2c0-0.1,0-0.1,0-0.2c0-0.1,0-0.2,0-0.4c0-0.2,0-0.3,0-0.5c0-0.1,0-0.2,0-0.3c0,0,0-0.1,0-0.1
		C15.1,2.8,15.1,2.7,15.3,2.5z"/>
	<path class="st27" d="M8.1,20.6c0,0.1,0,0.1,0.1,0.2c0.1,0.3,0.3,0.4,0.6,0.5c0.1,0,0.1,0,0.2,0.1c0.1,0,0.1,0,0.2,0.1
		c0.8,0.2,1.7,0.2,2.6,0.2c0.1,0,0.3,0,0.4,0c0.3,0,0.6,0,0.9,0c-0.4,0.2-0.9,0.2-1.4,0.2c0,0,0,0-0.1,0.1c-0.1,0-0.3,0-0.4,0
		c0,0-0.1,0-0.1,0c-0.1,0-0.3,0-0.4,0c0,0-0.1,0-0.1,0c-1.2,0-2.3-0.1-3.4-0.4c-0.3-0.1-0.5-0.1-0.8,0c0,0.1,0,0.2-0.1,0.2
		c-0.4-0.1-0.4-0.1-0.5-0.2C5.7,21.3,5.8,21.2,6,21c0.2-0.1,0.3-0.1,0.5-0.2c0,0,0.1,0,0.1,0C7.1,20.7,7.6,20.6,8.1,20.6z"/>
	<path class="st28" d="M11.2,2.2c0.1,0,0.1,0,0.2,0c0.1,0,0.1,0,0.2,0c0.1,0,0.1,0,0.2,0c0.1,0,0.1,0,0.2,0c0.1,0,0.1,0,0.2,0
		c0.1,0,0.1,0,0.2,0.1c0,0.1,0,0.1,0,0.2c0,0.1,0,0.1,0,0.1c0,0.1,0,0.1-0.1,0.2c-0.1,0-0.3,0-0.4,0c0,0-0.1,0-0.1,0
		c-0.1,0-0.2,0-0.3,0c0,0.2,0,0.4,0,0.6c0.3,0,0.5,0,0.8,0c0,0.4,0,0.4,0,0.5c-0.1,0.1-0.1,0.1-0.2,0.1c-0.1,0-0.1,0-0.2,0
		c-0.1,0-0.1,0-0.2,0c-0.1,0-0.1,0-0.2,0c0,0.2,0,0.4,0,0.5c0.1,0,0.1,0,0.2,0c0.1,0,0.2,0,0.2,0c0.1,0,0.2,0,0.2,0
		c0.2,0,0.2,0,0.3,0.1c0,0.1,0,0.3,0,0.4C12.2,4.9,12.1,5,11.8,5c-0.1,0-0.1,0-0.2,0c-0.1,0-0.1,0-0.2,0c-0.1,0-0.1,0-0.2,0
		c-0.4,0-0.4,0-0.5-0.1c0-0.1,0-0.2,0-0.2c0-0.1,0-0.1,0-0.2c0-0.1,0-0.1,0-0.2c0-0.1,0-0.1,0-0.2c0-0.1,0-0.2,0-0.4
		c0-0.2,0-0.4,0-0.6c0-0.1,0-0.2,0-0.4c0-0.1,0-0.1,0-0.2c0-0.1,0-0.1,0-0.2c0,0,0-0.1,0-0.1C10.9,2.1,11,2.2,11.2,2.2z"/>
	<path class="st24" d="M14.3,2.3c0.2,0.1,0.3,0.2,0.5,0.4c0,0.2,0,0.2,0,0.3c-0.1,0.1-0.1,0.1-0.2,0.2c-0.1,0-0.2,0-0.2,0
		c0-0.1-0.1-0.1-0.1-0.2c-0.1-0.2-0.1-0.2-0.3-0.2c-0.2,0-0.2,0-0.4,0.1c-0.2,0.3-0.3,0.5-0.3,0.9c0,0.2,0.1,0.4,0.3,0.6
		c0.2,0.1,0.3,0.1,0.5,0.1c0.1-0.1,0.2-0.1,0.2-0.2c0.2,0,0.3,0,0.4,0.2c0,0.1,0,0.1,0,0.3c-0.2,0.2-0.5,0.3-0.8,0.3
		c-0.4,0-0.6-0.1-0.9-0.4c-0.3-0.4-0.3-0.8-0.3-1.2c0-0.4,0.1-0.6,0.4-0.9C13.4,2.2,13.9,2.1,14.3,2.3z"/>
	<path class="st29" d="M13.9,2.8c0.2,0.1,0.3,0.1,0.4,0.4c0,0,0,0.1,0,0.1c0.1,0,0.1-0.1,0.2-0.1c0,0,0.1,0,0.1,0
		c0.1-0.1,0.1-0.1,0.3-0.2C15,3,15,3,15.2,3c0,0.7-0.1,1.4-0.1,2.1C15,5,15,5,14.9,5c0-0.1,0-0.1,0-0.2c-0.1,0-0.3,0.1-0.4,0.1
		c0-0.1,0.1-0.1,0.1-0.2c0-0.2,0-0.2,0-0.3c0,0-0.1-0.1-0.1-0.1c-0.2,0-0.3,0.1-0.5,0.2c-0.2,0-0.2,0-0.4,0
		c-0.2-0.2-0.3-0.3-0.4-0.6c0-0.4,0-0.6,0.2-0.9C13.6,2.8,13.6,2.8,13.9,2.8z"/>
	<path class="st24" d="M7.7,2.4C7.9,2.5,8,2.6,8.1,2.8c0,0,0,0.1,0,0.1C8,3.1,8,3.1,7.8,3.2c-0.2,0-0.3-0.1-0.4-0.2
		C7.2,3,7.1,3,6.9,3.2c-0.2,0.3-0.3,0.7-0.2,1c0.1,0.2,0.1,0.2,0.2,0.4c0,0,0,0.1,0,0.1c0.3,0,0.3,0,0.6-0.1c0,0,0.1-0.1,0.1-0.1
		c0.2-0.1,0.2-0.1,0.3-0.2c0.1,0,0.1,0,0.3,0.1c0,0.2,0,0.3-0.1,0.5C7.7,5.2,7.5,5.3,7.2,5.3c-0.4,0-0.6-0.1-0.8-0.4
		C6,4.5,6.1,4,6.1,3.5c0.1-0.4,0.2-0.6,0.5-0.9C7,2.4,7.3,2.4,7.7,2.4z"/>
	<path class="st30" d="M16,20.9c0.4,0,0.7,0.1,1,0.4c0.4,0.6,0.4,1.4,0.5,2.1c0,0.1,0,0.1,0,0.2c0,0.2,0,0.4,0,0.7
		c-0.2,0.2-0.4,0.3-0.7,0.4c-0.1,0-0.1,0-0.2,0c0,0,0-0.1,0-0.1c0.1,0,0.2,0,0.3,0c0,0,0-0.1,0-0.1c0.1,0,0.1,0,0.2-0.1
		c0,0,0-0.1,0-0.1c0-0.1,0-0.1,0-0.2c0,0,0.1,0,0.1-0.1c0.1-0.1,0.1-0.1,0.2-0.3c0-0.1,0-0.1,0-0.2c0-0.1,0-0.2,0-0.2
		c0-0.1,0-0.1,0-0.2c0,0-0.1,0-0.1,0c0-0.1,0-0.1,0-0.2c0-0.1,0-0.2,0-0.3c0,0,0-0.1,0-0.1c0-0.2,0-0.2-0.1-0.4c0-0.1,0-0.2,0-0.3
		c0,0,0-0.1,0-0.1c0,0,0-0.1,0-0.1c0,0-0.1,0-0.2,0.1c-0.8,0.3-1.6,0.5-2.4,0.6c-0.1,0-0.1,0-0.2,0c-1.6,0.2-3.3,0.2-4.9,0
		c0,0,0,0,0-0.1c0.1,0,0.1,0,0.1,0c0.4,0,0.9,0,1.3-0.1c0.2,0,0.5,0,0.7,0c1.7-0.1,3.4-0.2,5-0.7c0-0.2,0-0.2-0.1-0.4
		c0,0-0.1,0-0.1,0C16.2,21.1,16.1,21,16,20.9z"/>
	<path class="st31" d="M8.3,2.8C8.3,2.8,8.3,2.8,8.3,2.8c0.1,0,0.1,0.1,0.1,0.1c0,0.2,0,0.4,0,0.6c0,0.1,0,0.1,0,0.2
		c0,0.4,0,0.9,0.1,1.3c0,0-0.1,0-0.1,0c0-0.1,0-0.1-0.1-0.3c-0.1,0-0.1,0-0.2,0C8.1,4.6,8,4.5,8,4.4c-0.1,0-0.1,0-0.3,0
		c-0.1,0-0.1,0.1-0.2,0.2C7.4,4.7,7.3,4.7,7.1,4.7C7,4.7,6.9,4.7,6.8,4.6C6.6,4.3,6.6,4,6.7,3.7C6.7,3.4,6.8,3.2,7.1,3
		c0.3,0,0.3,0,0.5,0.1c0.1,0.1,0.1,0.1,0.3,0.1C8,3.1,8,3.1,8,3c0.1,0,0.1,0,0.2,0C8.2,2.9,8.3,2.8,8.3,2.8z"/>
	<path class="st32" d="M14.3,15.5c0.1,0,0.3,0.1,0.4,0.1c0,0.1-0.1,0.1-0.1,0.2c-0.2,0.2-0.2,0.5-0.3,0.8c0,0,0.1,0,0.1,0
		c0.6,0.2,1.3,0.4,1.7,1c0.1,0.3,0.1,0.7,0,1c-0.2,0.3-0.5,0.6-0.8,0.8c-0.1,0.1-0.2,0.2-0.2,0.4c0,0.1,0,0.1,0,0.2
		c0,0.1,0,0.1,0,0.2c0,0.1,0,0.1,0,0.1c-0.4,0-0.4,0-0.5-0.1c-0.1-0.2-0.1-0.3-0.1-0.5c0.1-0.1,0.1-0.1,0.1-0.2c0,0,0.1,0,0.1,0
		c0,0,0-0.1,0-0.1c0.2-0.1,0.4-0.2,0.7-0.3c0.1,0,0.2-0.1,0.3-0.2c0.2-0.3,0.2-0.7,0.2-1c-0.1-0.4-0.5-0.5-0.8-0.7
		c-0.3-0.1-0.6-0.2-0.8-0.3c-0.1,0-0.2-0.1-0.3-0.1c-0.1-0.1-0.1-0.1,0-0.2C13.8,16.1,14,15.8,14.3,15.5z"/>
	<path class="st33" d="M1.7,10.3c0,0,0.1,0,0.1,0c0.1,0,0.2,0.1,0.4,0.1c0,0,0,0.1,0,0.1c0,0,0.1,0,0.1,0c0.2,0.3,0.3,0.6,0.3,0.9
		c-0.1,0.2-0.2,0.3-0.4,0.4c-0.2,0-0.3,0-0.5-0.2c-0.1-0.1-0.2-0.2-0.3-0.4c0,0.1,0,0.3-0.1,0.4c0,0-0.1,0-0.1,0
		c0,0.1,0,0.2,0.1,0.2c-0.3,0.1-0.3,0.1-0.5,0.1c-0.1-0.6-0.1-1,0.2-1.5C1.3,10.4,1.4,10.3,1.7,10.3z"/>
	<path class="st34" d="M10,8.7c0.2,0.2,0.3,0.4,0.4,0.7c0,0.4,0,0.7-0.3,1c-0.2,0.1-0.2,0.1-0.4,0.2c-0.3,0-0.4-0.1-0.6-0.4
		C9,9.8,8.9,9.5,9.1,9.1c0.1-0.2,0.2-0.3,0.3-0.5C9.6,8.6,9.7,8.6,10,8.7z"/>
	<path class="st34" d="M13.9,8.6c0.3,0.2,0.4,0.5,0.4,0.8c0,0.3-0.1,0.7-0.3,0.9c-0.2,0.1-0.3,0.2-0.6,0.1c-0.2-0.2-0.4-0.4-0.4-0.6
		c0-0.3,0-0.6,0.2-0.9C13.4,8.6,13.6,8.5,13.9,8.6z"/>
	<path class="st35" d="M5.5,21.7C5.5,21.7,5.6,21.7,5.5,21.7c0.1,0.5,0.1,1-0.1,1.4c0,0.1,0,0.2,0,0.4c0.1-0.1,0.1-0.1,0.2-0.2
		c0.1,0.1,0.1,0.1,0.2,0.2c0.1,0,0.2-0.1,0.3-0.1c0,0.1,0,0.1,0,0.2c0.1,0,0.1,0,0.2,0.1c0,0.2,0,0.2,0,0.4C6.1,24,6.1,24,6,24.1
		c0.1,0,0.1,0,0.2-0.1c0,0,0,0.1,0.1,0.1c0.2,0.1,0.2,0.1,0.4,0.2c0-0.2,0.1-0.3,0.1-0.5c0,0,0.1-0.1,0.1-0.1
		c0.2,0.2,0.1,0.4,0.1,0.7c0,0.1,0,0.1,0,0.2c0,0.1,0,0.1,0,0.2c0.1,0,0.2,0,0.3,0.1c0,0,0,0,0,0.1c-0.6,0-1.3-0.2-1.8-0.6
		c-0.3-0.5,0-1.3,0.1-1.8c0-0.1,0-0.2,0-0.3C5.5,22.1,5.5,21.9,5.5,21.7z"/>
	<path class="st36" d="M9.6,12c0.2,0,0.4,0.1,0.7,0.2c0.9,0.3,1.8,0.4,2.8,0.3c-0.2,0.3-0.3,0.4-0.6,0.5c-0.6,0.1-1.2,0-1.7-0.2
		c-0.1,0-0.1,0-0.2,0c-0.4-0.1-0.6-0.3-0.8-0.6C9.6,12.1,9.6,12.1,9.6,12z"/>
	<path class="st37" d="M10.1,7.5c0.4,0.2,0.6,0.5,0.8,0.9c0.1,0.3,0.1,0.5,0.1,0.8c0,0,0,0-0.1,0c0,0,0-0.1,0-0.1
		c-0.1-0.5-0.3-1-0.7-1.3c-0.3-0.1-0.7-0.1-1-0.1C8.7,8,8.6,8.4,8.5,8.8c-0.1,0.5-0.1,0.9,0.1,1.3c0.1,0.2,0.3,0.3,0.4,0.5
		c-0.1,0-0.1,0-0.1,0.1c-0.4-0.2-0.6-0.5-0.7-0.9C8.1,9.1,8.1,8.5,8.5,8C8.9,7.5,9.5,7.2,10.1,7.5z"/>
	<path class="st38" d="M14.6,7.5c0.4,0.2,0.7,0.6,0.8,1c0.1,0.6,0.1,1.1-0.2,1.6c-0.2,0.3-0.3,0.4-0.6,0.5c-0.1,0-0.1,0-0.2,0
		c0,0,0.1-0.1,0.1-0.1c0.4-0.4,0.6-0.7,0.7-1.2c0-0.5-0.1-0.9-0.4-1.3c-0.2-0.2-0.4-0.3-0.7-0.2c-0.4,0.1-0.6,0.2-0.8,0.5
		c-0.2,0.3-0.3,0.6-0.3,0.9c0,0,0,0-0.1,0c0-0.5,0-1,0.4-1.3C13.6,7.5,14,7.3,14.6,7.5z"/>
	<path class="st39" d="M17,25c0,0.1,0,0.2,0,0.3c-0.9,0.3-1.8,0.5-2.8,0.6C14,26,14,26,13.9,26c-0.1,0-0.2,0-0.3,0
		c-0.3,0-0.6,0-0.8,0c-0.5,0-0.9,0-1.4,0c0,0,0-0.1,0-0.1c0.1,0,0.2,0,0.3,0.1c0-0.1,0-0.1,0.1-0.2c0.5-0.1,0.9-0.1,1.4-0.1
		c1.2,0,2.5-0.2,3.7-0.6C16.9,25,16.9,25,17,25z"/>
	<path class="st40" d="M9.9,6c0.2,0.1,0.3,0.3,0.4,0.5c0,0.1,0,0.1,0,0.2c-0.1,0.1-0.1,0.1-0.2,0.1c-0.1,0-0.2-0.1-0.3-0.1
		c-0.3-0.1-0.7-0.1-1,0C8.7,6.7,8.6,6.8,8.5,6.8c-0.1,0.1-0.1,0.1-0.3,0c0,0-0.1,0-0.1,0c0-0.3,0.2-0.5,0.4-0.7
		C8.9,5.8,9.4,5.8,9.9,6z"/>
	<path class="st41" d="M15,6.1c0.3,0.2,0.4,0.3,0.4,0.7c0,0.1,0,0.1,0,0.2c-0.2,0-0.4-0.1-0.6-0.2c-0.4-0.1-0.8-0.1-1.2,0.1
		c-0.1,0-0.1,0-0.2,0c-0.1-0.2-0.1-0.3,0-0.4C13.8,5.9,14.4,5.8,15,6.1z"/>
	<path class="st42" d="M14.4,21.9c0,0,0,0.1,0,0.1c0,0.1,0,0.1,0,0.1c0.1,0,0.1,0,0.1,0.1c-1.3,0.6-3.8,0.2-5.2,0.1c0,0,0,0,0-0.1
		c0,0,0.1,0,0.1,0c0.5,0,0.9,0,1.4-0.1c0.2,0,0.5,0,0.7,0c0.2,0,0.5,0,0.7,0c0.1,0,0.2,0,0.3,0C13.2,22,13.8,22,14.4,21.9z"/>
	<path class="st43" d="M2,10.3c0.1,0.1,0.1,0.1,0.2,0.1c0,0,0,0.1,0,0.1c0,0,0.1,0,0.1,0c0.2,0.3,0.3,0.6,0.3,0.9
		c-0.1,0.2-0.2,0.3-0.4,0.4c-0.1,0-0.1,0-0.2-0.1c0,0,0-0.1,0-0.1c0-0.3-0.1-0.6-0.2-0.8c-0.2-0.1-0.3-0.1-0.6-0.1
		c-0.1,0-0.1,0-0.2,0c0,0-0.1,0-0.1,0C1.2,10.4,1.5,10.3,2,10.3z"/>
	<path class="st44" d="M10.2,13.5c0.6,0,1.2,0,1.7,0.4c0,0,0,0.1,0,0.1c0,0,0.1,0,0.1,0c0,0.1,0,0.2,0.1,0.3c-0.6,0-1,0-1.5-0.3
		c0,0,0-0.1,0-0.1c0,0-0.1,0-0.1,0C10.3,13.7,10.3,13.6,10.2,13.5z"/>
	<path class="st45" d="M3,9.9c0.3,0.2,0.4,0.5,0.5,0.8c-0.1,0.3-0.3,0.4-0.5,0.5c0,0,0-0.1,0-0.1c-0.1-0.4-0.3-0.7-0.7-0.9
		c-0.1,0-0.1-0.1-0.2-0.1C2,9.9,2,9.9,2.2,9.8C2.5,9.8,2.7,9.8,3,9.9z"/>
	<path class="st46" d="M9.1,21.4c0.1,0,0.2,0,0.3,0c0.1,0,0.1,0,0.2,0c0.1,0,0.2,0,0.3,0c0.4,0,0.7,0.1,1.1,0.1c0.1,0,0.1,0,0.2,0
		c0.2,0,0.4,0,0.6,0c0.1,0,0.3,0,0.4,0c0.3,0,0.6,0,0.9,0c-0.4,0.2-0.9,0.2-1.4,0.2c0,0,0,0-0.1,0.1c-0.1,0-0.3,0-0.4,0
		c-0.1,0-0.1,0-0.1,0c-0.1,0-0.3,0-0.4,0c-0.1,0-0.2,0-0.3,0c-0.2,0-0.4,0-0.6,0c0-0.1,0-0.1,0-0.2c-0.1-0.1-0.2-0.1-0.4-0.1
		c0,0-0.1,0-0.1,0c0,0-0.1,0-0.1,0C9.1,21.5,9.1,21.5,9.1,21.4z"/>
	<path class="st47" d="M5.6,25c0.4,0.1,0.7,0.2,1.1,0.4c-0.1,0.3-0.1,0.3-0.2,0.4c0,0,0.1,0.1,0.1,0.1c0,0.1,0,0.1-0.1,0.2
		c-0.4-0.1-0.7-0.2-0.9-0.5C5.6,25.4,5.6,25.4,5.6,25z"/>
	<path class="st48" d="M3.2,9.6c0.3,0,0.5,0,0.7,0.1c0.3,0.3,0.4,0.5,0.4,0.8c0,0,0,0.1-0.1,0.1c-0.2,0-0.3,0-0.5,0.1
		c0,0,0-0.1,0-0.1c0-0.1,0-0.1,0-0.2c0-0.1,0-0.1,0-0.2C3.6,10.1,3.5,10,3.4,9.9c0,0,0-0.1,0-0.1C3.3,9.8,3.2,9.7,3.2,9.6
		C3.2,9.7,3.2,9.6,3.2,9.6z"/>
	<path class="st49" d="M9.4,24.7c-0.1,0.1-0.1,0.3-0.2,0.4c0.5,0,1,0.1,1.5,0.1c0,0,0,0,0,0.1c-1.2,0-2.4-0.1-3.6-0.3c0,0,0,0,0-0.1
		c0.1,0,0.1,0,0.1,0c0.2,0,0.4,0,0.6,0c0.1,0,0.1,0,0.2,0c0.1,0,0.1,0,0.2,0c0.1,0,0.1,0,0.2,0c0.2,0,0.2,0,0.2-0.2
		c0,0,0.1-0.1,0.1-0.1C8.9,24.6,9.2,24.7,9.4,24.7z"/>
	<path class="st50" d="M10.1,13.4c0.2,0,0.3,0,0.5,0c0,0,0.1,0,0.1,0c0.1,0,0.2,0,0.4,0c0,0,0.1,0.1,0.1,0.1c-0.3,0-0.7,0-1,0
		c0.1,0.1,0.2,0.2,0.3,0.3c0,0,0,0.1,0,0.1c0.1,0,0.1,0,0.2,0.1c0.2,0.1,0.2,0.1,0.3,0.1c0.2,0.1,0.4,0.1,0.6,0.1c0.1,0,0.1,0,0.1,0
		c0.1,0,0.2,0,0.3,0c0-0.1,0-0.1-0.1-0.3c0,0,0.1,0,0.1,0c0,0.1,0,0.2,0,0.4c-0.2,0.1-0.3,0.1-0.5,0.1c-0.1,0-0.2,0-0.2,0
		c-0.1,0-0.1,0-0.2,0c0,0.1,0,0.1,0,0.2c-0.3-0.1-0.6-0.2-0.9-0.4C10.2,13.9,10.1,13.7,10.1,13.4z"/>
	<path class="st51" d="M13,10.5c0.2,0,0.4,0,0.6,0.2c0.1,0.2,0.1,0.4,0.1,0.6c-0.1,0.2-0.2,0.3-0.5,0.4c-0.3,0-0.5,0-0.8-0.2
		c0,0,0,0,0-0.1c0,0,0.1,0,0.1,0c0.3,0,0.5-0.1,0.8-0.3c0.1-0.2,0.1-0.2,0-0.4C13.2,10.7,13.1,10.6,13,10.5z"/>
	<path class="st52" d="M17,21.5C17.1,21.5,17.1,21.5,17,21.5c0.2,0.7,0.3,1.3,0.4,2c0,0,0,0.1,0,0.1c0,0.3,0,0.5-0.2,0.7
		c-0.1,0.1-0.1,0.1-0.3,0.2c-0.1,0-0.1,0-0.2,0.1c-0.1,0.1-0.1,0.1-0.3,0.1c0,0,0-0.1,0-0.1c0.1,0,0.2,0,0.3,0c0,0,0-0.1,0-0.1
		c0.1,0,0.1,0,0.2-0.1c0,0,0-0.1,0-0.1c0-0.1,0-0.1,0-0.2c0,0,0.1,0,0.1-0.1c0.1-0.1,0.1-0.1,0.2-0.3c0-0.1,0-0.1,0-0.2
		c0-0.1,0-0.2,0-0.2c0-0.1,0-0.1,0-0.2c0,0-0.1,0-0.1,0c0-0.1,0-0.1,0-0.2c0-0.1,0-0.2,0-0.3c0,0,0-0.1,0-0.1c0-0.2,0-0.2-0.1-0.4
		c0-0.1,0-0.2,0-0.3c0-0.1,0-0.1,0-0.2C17,21.6,17,21.6,17,21.5z"/>
	<path class="st53" d="M8.1,20.6c0,0.1,0,0.1,0.1,0.2c0.2,0.4,0.5,0.5,0.9,0.6c0,0-0.1,0-0.1,0.1c-0.1,0.1-0.2,0.1-0.4,0.2
		c-0.1-0.1-0.2-0.2-0.3-0.3c0,0-0.1,0-0.1,0.1c0,0,0-0.1,0-0.1c0,0-0.1,0-0.1-0.1c0,0,0,0,0-0.1c0-0.2,0-0.3-0.1-0.4
		c-0.1,0-0.1,0-0.2,0c-0.1,0-0.2,0-0.2,0c-0.1,0-0.1,0-0.1,0c-0.2,0-0.4,0-0.6,0c0,0,0,0.1,0,0.1c-0.2,0-0.3,0-0.5,0
		c0.2-0.1,0.3-0.1,0.5-0.2c0.1,0,0.1,0,0.2,0c0.1,0,0.1,0,0.2,0c0.1,0,0.1,0,0.2,0C7.6,20.6,7.8,20.6,8.1,20.6z"/>
	<path class="st54" d="M2.5,10.9c0,0,0.1,0,0.1,0.1c0.1,0.2,0.1,0.5,0,0.7c-0.1,0.1-0.1,0.1-0.3,0.2c-0.1,0-0.1,0-0.2-0.1
		c0,0,0-0.1,0-0.1c0-0.1,0-0.1,0-0.2c0-0.1,0-0.1,0-0.2c0-0.2,0-0.2-0.1-0.3c0,0,0.1,0,0.1,0c0,0,0-0.1,0.1-0.1c0,0,0.1,0.1,0.1,0.1
		C2.3,11,2.4,11,2.5,10.9z"/>
	<path class="st55" d="M8.5,2.1c0,0,0.1,0.1,0.1,0.1c-0.1,0-0.2,0-0.2,0.1c0,0.6,0,1.3,0,1.9c0,0,0,0-0.1,0c0-0.5,0-0.9-0.1-1.4
		C8.2,2.9,8.2,2.9,8.2,3C8,2.9,8,2.7,7.9,2.5c0,0,0.1,0,0.1-0.1c0-0.1,0-0.1,0-0.2c0,0,0.1,0,0.1,0c0,0,0-0.1,0-0.1
		C8.3,2.1,8.3,2.1,8.5,2.1z"/>
	<path class="st56" d="M14.9,25.1C14.9,25.1,14.9,25.1,14.9,25.1c-1.4,0.3-2.8,0.3-4.3,0.3c0,0,0,0,0-0.1c0,0,0.1,0,0.1,0
		c0.2,0,0.3,0,0.5,0c0.1,0,0.1,0,0.2,0c0.1,0,0.1,0,0.2,0c0,0,0.1,0,0.1,0c0.1,0,0.1,0,0.2,0c0.2,0,0.3,0,0.5,0c0.1,0,0.1,0,0.2,0
		c0.1,0,0.2,0,0.2,0c0.5,0,0.9,0,1.4-0.1C14.5,25.1,14.7,25.1,14.9,25.1z"/>
	<path class="st57" d="M11,13.6c0.3,0,0.4,0,0.6,0.1c0.1,0,0.1,0,0.2,0.1c0,0,0.1,0,0.1,0.1c0,0.1,0,0.2,0,0.2c-0.1,0-0.2,0-0.3,0
		c-0.1,0-0.1,0-0.2,0c-0.2,0-0.3,0-0.5-0.1C11,13.9,11,13.8,11,13.6z"/>
	<path class="st58" d="M10.3,0.5c0.6,0,1.2,0,1.8,0c0,0,0,0,0,0.1c-0.3,0-0.7,0-1,0c0,0.1,0,0.1,0.1,0.2c0,0,0,0.1-0.1,0.1
		c0.2,0,0.4,0,0.6,0c0,0,0,0,0,0.1c-0.4,0-0.7,0-1.1,0c0-0.1,0-0.2,0.1-0.4C10.6,0.6,10.5,0.6,10.3,0.5C10.3,0.6,10.3,0.5,10.3,0.5z
		"/>
	<path class="st59" d="M6.4,21c-0.1,0.1-0.1,0.1-0.2,0.1c0.1,0,0.2,0.1,0.2,0.1c-0.1,0.2-0.2,0.3-0.2,0.5c-0.4-0.1-0.4-0.1-0.5-0.2
		C5.7,21.3,5.8,21.2,6,21C6.2,20.9,6.2,20.9,6.4,21z"/>
	<path class="st60" d="M4.6,4.8c0,0.1,0,0.2,0.1,0.2c0.1,0,0.1,0,0.2-0.1c0,0.1,0,0.2,0,0.4c0,0-0.1,0-0.1,0c-0.1,0-0.1,0-0.2,0.2
		c0,0,0,0-0.1-0.1c0,0.1-0.1,0.1-0.1,0.2C4.2,5.4,4.2,5.1,4.2,4.9C4.4,4.8,4.4,4.8,4.6,4.8z"/>
	<path class="st61" d="M4.7,2.8c0,0,0.1,0,0.1,0c0,0.2,0,0.5,0.1,0.7c0,0,0-0.1-0.1-0.1c0,0-0.1,0-0.1,0c0,0,0-0.1,0-0.1
		c-0.1,0-0.1,0-0.1,0c-0.2,0-0.2,0-0.3-0.2c0.2-0.2,0.2-0.2,0.5-0.2C4.7,2.8,4.7,2.8,4.7,2.8z M4.1,2.9C4.1,2.9,4.2,2.9,4.1,2.9
		C4.2,3,4.2,3.1,4.2,3.2c0.1,0,0.1,0,0.2,0.1c0,0-0.1,0.1-0.1,0.1c0,0,0,0-0.1,0c0,0.2,0,0.3-0.1,0.5c0,0,0,0-0.1,0
		C4.1,3.5,4.1,3.2,4.1,2.9z"/>
	<path class="st62" d="M6.5,20.5c0,0,0,0.1,0,0.1c0,0-0.1,0-0.1,0c0,0-0.1,0-0.1,0c0,0-0.1,0-0.1,0C6,20.8,6,20.8,5.8,20.9
		c0,0-0.1,0-0.1-0.1c0,0,0,0.1,0,0.1c-0.1,0.1-0.1,0.2-0.2,0.3c0,0-0.1,0-0.1,0c0,0.1,0,0.2-0.1,0.3c0,0,0,0-0.1,0
		c0-0.3,0.1-0.5,0.2-0.7C5.7,20.6,6.1,20.5,6.5,20.5z"/>
	<path class="st63" d="M3.2,9.6c0.4,0,0.6,0,0.9,0.2c0,0,0,0.1,0.1,0.1c0,0,0,0.1-0.1,0.1c0,0-0.1,0-0.1-0.1c-0.1,0-0.2,0.1-0.4,0.1
		C3.4,9.9,3.4,9.9,3.4,9.8C3.3,9.8,3.2,9.7,3.2,9.6C3.2,9.7,3.2,9.6,3.2,9.6z"/>
	<path class="st64" d="M7.8,20.5c0.1,0,0.2,0,0.4,0c0,0.2,0,0.2,0.1,0.4c0,0-0.1-0.1-0.1-0.1c0-0.1,0-0.1,0-0.2
		c-0.2,0-0.5,0.1-0.7,0.1c-0.1,0-0.1,0-0.2,0c-0.4,0.1-0.9,0.2-1.3,0.3C6,20.9,6,20.9,6.2,20.8c0.2,0,0.2,0,0.4,0c0,0,0-0.1,0-0.1
		c0.1,0,0.2,0,0.2,0c0.1,0,0.2,0,0.3,0c0.1,0,0.1,0,0.2,0c0,0,0.1,0,0.1,0c0.1,0,0.1,0,0.1,0C7.6,20.5,7.6,20.5,7.8,20.5z"/>
	<path class="st65" d="M10.1,10.6c0,0,0,0.1,0.1,0.1c-0.1,0-0.2,0.1-0.3,0.1c-0.1,0-0.1,0-0.2,0.1C9.6,11,9.6,11,9.4,11
		c0,0.1,0,0.2,0.1,0.2c-0.1,0-0.2,0-0.3-0.1c0-0.1-0.1-0.2-0.1-0.4c0,0,0.1,0,0.1,0c0,0,0-0.1,0.1-0.1c0.1,0,0.1,0,0.1,0
		C9.8,10.7,9.8,10.7,10.1,10.6z"/>
	<path class="st66" d="M14.3,15.5c0.1,0,0.2,0,0.3,0.1c-0.1,0-0.2,0-0.2,0.1c0,0.1,0,0.1,0,0.1c0,0.1,0,0.2-0.1,0.3
		c0,0.1,0,0.1,0,0.2c0,0-0.1,0-0.1,0c-0.1,0-0.1,0-0.2,0.2c-0.1-0.1-0.1-0.1-0.1-0.2c0-0.2,0.1-0.3,0.2-0.4c0,0,0.1-0.1,0.1-0.1
		C14.2,15.6,14.2,15.6,14.3,15.5z"/>
	<path class="st67" d="M10,8.7c0.1,0.1,0.1,0.1,0.2,0.2c0,0.1,0,0.1-0.1,0.2c0,0-0.1,0-0.1,0C10,9,10,8.9,10,8.8c-0.1,0-0.1,0-0.2,0
		c-0.1,0-0.2,0-0.3,0C9.4,9,9.3,9.1,9.2,9.3c0,0-0.1,0-0.1,0c0-0.3,0.1-0.4,0.3-0.6C9.6,8.6,9.7,8.6,10,8.7z"/>
	<path class="st68" d="M12,13.9c0,0,0.1,0,0.1,0c0,0.1,0,0.2,0,0.4c-0.2,0.1-0.3,0.1-0.5,0.1c-0.1,0-0.2,0-0.2,0c-0.1,0-0.1,0-0.2,0
		c0,0.1,0,0.1,0,0.2c-0.1,0-0.1,0-0.2-0.1c0-0.1,0-0.1,0-0.2c-0.1-0.1-0.2-0.1-0.4-0.2c0,0,0-0.1,0.1-0.1c0.1,0,0.1,0.1,0.2,0.1
		c0.4,0.1,0.8,0.1,1.2,0.2C12.1,14.1,12,14,12,13.9z"/>
	<path class="st69" d="M5.8,11.5c0,0,0.1,0.1,0.1,0.1c0.1,0,0.2-0.1,0.3-0.1c0,0.1,0.1,0.1,0.1,0.2c0,0.1,0,0.1-0.1,0.3
		c0,0.1,0,0.1-0.1,0.2c0,0,0,0.1-0.1,0.1c-0.1-0.2-0.3-0.4-0.4-0.6C5.7,11.6,5.7,11.6,5.8,11.5z"/>
	<path class="st70" d="M8.9,17.1c0.1,0,0.3,0,0.4,0c0,0.2,0,0.3,0,0.5c0,0,0,0.1,0,0.1c0,0,0,0.1,0,0.1c0,0,0,0.1,0,0.1
		c0,0.1,0,0.1-0.1,0.3c0-0.1,0-0.3,0-0.4c0-0.1,0-0.1,0-0.2c0-0.2,0-0.3,0.1-0.4c-0.1,0-0.1,0-0.1,0.1c-0.2,0.1-0.3,0.1-0.5,0.1
		c0,0,0-0.1,0-0.1c0.1,0,0.2,0,0.3,0C8.9,17.1,8.9,17.1,8.9,17.1z"/>
	<path class="st71" d="M9,3.9c0.3,0,0.5,0,0.8,0c0,0.3,0,0.6,0,0.9c0,0,0,0-0.1,0c0-0.1,0-0.2,0-0.4c0-0.1,0-0.1,0-0.1
		c0,0-0.1,0-0.1-0.1c0-0.1,0-0.1-0.1-0.2C9.4,4,9.2,4,9,3.9c0.1,0.4,0.1,0.7,0.1,1c0,0,0,0-0.1,0C9,4.6,9,4.2,9,3.9z"/>
	<path class="st72" d="M14.6,15.6c0,0,0.1,0.1,0.1,0.1c0,0-0.1,0.1-0.1,0.1c-0.2,0.2-0.2,0.5-0.3,0.7c-0.1-0.1-0.1-0.1-0.3-0.2
		c0-0.1,0-0.1,0-0.2c0.1,0,0.2,0,0.2,0c0,0,0-0.1,0-0.1c0-0.2,0-0.2,0.1-0.3c0.1-0.1,0.1-0.1,0.2-0.2C14.5,15.6,14.5,15.6,14.6,15.6
		z"/>
	<path class="st73" d="M6.8,12c0.1,0.2,0.3,0.3,0.4,0.5c0,0-0.1,0-0.1,0c0,0-0.1,0-0.1,0c0,0,0,0.1-0.1,0.1
		c-0.1,0.1-0.1,0.2-0.2,0.4c0,0-0.1,0-0.1,0c0-0.1,0.1-0.2,0.1-0.3c0,0-0.1,0-0.1,0c0.1-0.1,0.1-0.1,0.2-0.3c0,0,0-0.1,0-0.1
		c0,0,0-0.1,0-0.1C6.7,12.2,6.8,12.1,6.8,12z"/>
	<path class="st74" d="M15.7,24.7c0.3,0,0.5,0,0.8,0.1c-0.2,0.1-0.4,0.2-0.7,0.2c0,0-0.1,0-0.1,0c-0.2,0.1-0.4,0.1-0.7,0.1
		c0,0,0.1,0,0.1,0c0.1-0.1,0.1-0.1,0.3-0.2c0.1-0.1,0.1-0.1,0.3-0.1C15.7,24.7,15.7,24.7,15.7,24.7z"/>
	<path class="st75" d="M17.3,23.7C17.3,23.7,17.3,23.7,17.3,23.7c0.1,0.6,0.1,0.6,0,0.8c-0.1,0.1-0.1,0.1-0.3,0.2
		c-0.1,0-0.1,0-0.2,0.1c-0.1,0.1-0.1,0.1-0.3,0.1c0,0,0-0.1,0-0.1c0.1,0,0.2,0,0.3,0c0,0,0-0.1,0-0.1c0.1,0,0.1,0,0.2-0.1
		c0,0,0-0.1,0-0.1c0-0.1,0-0.1,0-0.2c0.1-0.1,0.2-0.1,0.2-0.2C17.3,23.8,17.3,23.8,17.3,23.7z"/>
	<path class="st76" d="M13.1,7.9c0,0,0.1,0,0.1,0c0,0.1,0,0.1,0.1,0.2c-0.1,0.1-0.1,0.2-0.2,0.3c-0.1,0.2-0.2,0.5-0.3,0.8
		c0,0,0,0-0.1,0C12.8,8.2,12.8,8.2,13.1,7.9z"/>
	<path class="st77" d="M10.2,13.5c0.6,0,1.2,0,1.7,0.4c0,0,0,0.1,0,0.1c-0.1,0-0.2-0.1-0.2-0.1c-0.1,0-0.1,0-0.1,0
		c-0.1,0-0.3-0.1-0.4-0.2c-0.3-0.1-0.5-0.1-0.8-0.1c0.1,0.1,0.1,0.2,0.2,0.2C10.3,13.7,10.3,13.6,10.2,13.5z"/>
	<path class="st78" d="M5,16.7c0.2,0,0.3,0,0.5,0.1c-0.1,0.1-0.1,0.1-0.1,0.2c0,0-0.1,0-0.1,0c0,0.1,0,0.2-0.1,0.2
		c-0.1,0-0.2,0-0.3,0.1c0,0,0-0.1-0.1-0.1c0,0,0.1,0,0.1,0c0,0,0-0.1,0-0.1c0,0-0.1,0-0.1-0.1c0.1,0,0.1-0.1,0.2-0.1
		C5,16.8,5,16.7,5,16.7z"/>
	<path class="st79" d="M11.6,24.1c0.1,0.2,0.1,0.2,0.1,0.3c-0.1,0.1-0.1,0.1-0.2,0.2c0-0.1,0-0.2-0.1-0.2c-0.1,0.1-0.2,0.1-0.2,0.2
		c-0.1,0-0.1-0.1-0.2-0.1c0,0,0-0.1,0-0.1c0,0,0.1,0,0.1-0.1c0,0,0-0.1-0.1-0.1C11.3,24,11.4,24.1,11.6,24.1z"/>
	<path class="st80" d="M4.8,23.5c0,0,0.1,0,0.1,0.1c0,0.1,0,0.1,0,0.1c0,0.4,0,0.7,0.2,1.1c-0.2-0.1-0.2-0.1-0.3-0.2
		c-0.1-0.3-0.1-0.6-0.1-0.9C4.8,23.6,4.8,23.5,4.8,23.5z"/>
	<path class="st81" d="M3.3,10.6c0,0.1,0,0.1,0,0.3c-0.1,0.1-0.3,0.2-0.4,0.3c0-0.2-0.1-0.3-0.1-0.5C3.2,10.6,3.2,10.6,3.3,10.6z"/>
	<path class="st82" d="M13,9.3c0,0,0.1,0,0.1,0.1c0,0.1,0,0.1,0,0.2c0,0.4,0.2,0.7,0.4,1c0,0-0.1,0.1-0.1,0.1
		c-0.1-0.1-0.1-0.2-0.2-0.3c0-0.1-0.1-0.1-0.1-0.2c-0.1-0.2-0.2-0.4-0.2-0.6c0,0,0-0.1,0-0.1C12.9,9.3,12.9,9.3,13,9.3z"/>
	<path class="st83" d="M10.1,7.5c0,0.1,0,0.2,0,0.3c-0.2,0-0.4-0.1-0.6-0.1c0-0.1,0-0.1-0.1-0.2C9.6,7.4,9.8,7.4,10.1,7.5z"/>
	<path class="st84" d="M14.1,20.5c0,0.1,0,0.1-0.1,0.3c-0.3,0.2-0.3,0.2-0.5,0.2c0-0.1,0-0.2,0-0.4C13.9,20.5,13.9,20.5,14.1,20.5z"
		/>
	<path class="st85" d="M1.5,10c-0.1,0.1-0.2,0.2-0.3,0.2c-0.2,0-0.2,0-0.2,0.1c0,0,0,0.1,0,0.1c0,0,0,0.1-0.1,0.1
		c-0.1,0-0.1,0-0.2,0c0,0.1-0.1,0.2-0.1,0.2c0-0.3,0.1-0.4,0.3-0.6c0,0,0.1,0,0.1,0c0,0,0-0.1,0-0.1C1.2,10,1.3,10,1.5,10z"/>
	<path class="st86" d="M14.6,20.6c0.5,0,0.9,0.1,1.4,0.2c0,0,0,0,0,0.1c-0.1,0-0.3,0-0.4,0c-0.1,0-0.1,0-0.2,0c-0.2,0-0.2,0-0.2-0.1
		c-0.1,0-0.3,0-0.4-0.1c0,0.1-0.1,0.2-0.1,0.3c0,0-0.1,0-0.1,0C14.5,20.9,14.5,20.7,14.6,20.6z"/>
	<path class="st87" d="M18,5.5c0.1,0.1,0.1,0.1,0.2,0.2c0.1,0,0.1,0,0.2,0.1c0,0.1,0,0.2,0,0.3c-0.1,0-0.2,0-0.4,0.1
		c0-0.1,0-0.2,0.1-0.2c-0.1,0-0.1,0-0.2,0c0-0.1,0-0.1-0.1-0.2C17.9,5.6,17.9,5.6,18,5.5z"/>
	<path class="st88" d="M14.7,20.7c0.1,0,0.3,0,0.4,0c0,0,0,0.1,0.1,0.1c0,0-0.1,0-0.1,0c0,0-0.1,0-0.1,0c0,0,0,0.1-0.1,0.1
		c0-0.1,0-0.1,0-0.2c-0.1,0.1-0.1,0.1-0.3,0.2C14.6,20.9,14.6,20.8,14.7,20.7z M14.5,21C14.5,21,14.5,21.1,14.5,21
		c-0.2,0.3-0.2,0.3-0.4,0.3c0,0-0.1,0-0.1,0C14.3,21,14.3,21,14.5,21z"/>
	<path class="st89" d="M8.7,19.3C8.7,19.3,8.8,19.3,8.7,19.3c0.1,0.1,0.1,0.1,0.1,0.3c-0.1,0.1-0.1,0.1-0.3,0.2
		c0,0.1-0.1,0.1-0.1,0.2c-0.1,0.2-0.2,0.2-0.4,0.3c0.1-0.1,0.2-0.2,0.3-0.3c0.1-0.1,0.1-0.2,0.2-0.3c0,0,0.1-0.1,0.1-0.1
		C8.6,19.5,8.6,19.4,8.7,19.3C8.7,19.4,8.7,19.3,8.7,19.3z"/>
	<path class="st90" d="M16.9,16.2c0.2,0.1,0.4,0.2,0.6,0.4c0,0,0.1,0.1,0.1,0.1c0.1,0.1,0.2,0.2,0.2,0.4c-0.1,0-0.1,0-0.2,0
		c0-0.1,0-0.1,0-0.2c0,0-0.1,0-0.1,0c0,0,0-0.1,0-0.1c0,0-0.1,0-0.1-0.1c-0.1,0-0.2-0.1-0.2-0.1c0-0.1,0-0.1,0-0.2
		c-0.1,0-0.1,0-0.2,0c0,0,0-0.1,0-0.1c0,0-0.1,0-0.1,0C16.9,16.3,16.9,16.3,16.9,16.2z"/>
	<path class="st91" d="M4.1,12c-0.3,0.3-0.5,0.4-0.9,0.4c0.1,0,0.2,0,0.2-0.1c0-0.1,0-0.2,0-0.2c0.1,0,0.2,0,0.3-0.1
		c0.1,0,0.1,0,0.2,0C4,11.9,4,11.9,4.1,12z"/>
	<path class="st90" d="M8.4,17.3c-0.1,0.2-0.2,0.2-0.5,0.3c-0.2,0-0.4,0-0.5,0c0.1-0.1,0.1-0.1,0.2-0.2c0.1,0,0.1,0,0.2,0
		c0.1,0,0.1,0,0.2,0C8.1,17.3,8.3,17.3,8.4,17.3z"/>
	<path class="st92" d="M10.1,7.5c0.4,0.2,0.4,0.2,0.5,0.4c0,0.1,0,0.2,0,0.2c-0.4-0.2-0.4-0.2-0.5-0.4C10,7.7,10,7.6,10.1,7.5
		C10,7.6,10.1,7.6,10.1,7.5z"/>
	<path class="st93" d="M12.1,20.7c0.1,0,0.2,0,0.4,0c0,0.1,0,0.1,0.1,0.2c-0.1,0-0.1,0-0.1,0.1c0,0,0-0.1,0-0.1c0,0-0.1,0-0.1,0
		c0,0,0,0.1-0.1,0.1c0.1,0.1,0.1,0.1,0.3,0.1c0,0,0-0.1,0.1-0.1c0,0.1,0,0.1,0,0.2c-0.2,0.1-0.3,0-0.5,0C12,21,12.1,20.9,12.1,20.7z
		"/>
	<path class="st94" d="M15.7,2.6C15.8,2.6,15.8,2.6,15.7,2.6c0.1,0.2,0.1,0.3,0.1,0.5C15.9,3,16,3,16.2,3c-0.1,0.2-0.2,0.3-0.4,0.5
		C15.7,3.2,15.7,2.9,15.7,2.6z"/>
	<path class="st95" d="M11,20.8c0,0,0,0.1,0,0.1c0.1,0,0.2,0,0.2,0.1c-0.1,0.1-0.1,0.1-0.2,0.2c-0.2,0-0.2,0-0.4,0
		c-0.1,0-0.1,0-0.2,0c0,0-0.1,0-0.1,0c0,0,0,0,0-0.1c0.2,0,0.4,0,0.5,0c-0.1-0.1-0.1-0.1-0.2-0.2c0,0-0.1-0.1-0.1-0.1
		C10.7,20.8,10.8,20.8,11,20.8z"/>
	<path class="st96" d="M3.9,6.1c0,0,0.1,0,0.1,0.1c0,0.1,0,0.3,0.1,0.4c0,0,0,0.1,0,0.1c0,0.1,0,0.2,0,0.3C4.1,7,4.1,7,4,7
		c0-0.1,0-0.2-0.1-0.3c0-0.1,0-0.1,0-0.2C3.9,6.4,3.9,6.2,3.9,6.1z"/>
	<path class="st97" d="M4.1,11.9c0,0.1,0,0.1,0.1,0.2c0.1,0,0.2,0,0.3-0.1c-0.1,0.2-0.2,0.3-0.4,0.4c0-0.1,0-0.2-0.1-0.2
		c-0.1,0-0.1,0.1-0.2,0.1C3.9,12.1,4,12,4.1,11.9z"/>
	<path class="st98" d="M13.4,10.6c0,0,0.1,0,0.1,0.1c0.3,0.1,0.7,0,1.1,0c0,0.1,0,0.2-0.1,0.2c0,0-0.1,0-0.1-0.1c-0.2,0-0.3,0-0.5,0
		c0,0-0.1,0-0.1,0c-0.1,0-0.2,0-0.3,0C13.5,10.8,13.5,10.7,13.4,10.6z"/>
	<path class="st99" d="M16.9,19.9c0,0,0.1,0,0.1,0c0,0.3,0,0.5-0.2,0.8c-0.1,0-0.2-0.1-0.2-0.1c0.1-0.2,0.1-0.2,0.2-0.3
		C16.8,20.1,16.8,20.1,16.9,19.9z"/>
	<path class="st100" d="M5,5.2C5,5.2,5,5.2,5,5.2C5.1,5.5,5.1,5.7,5.1,6C5,6,5,6,4.9,5.8c-0.1,0-0.2,0-0.2,0.1c0-0.1,0-0.1-0.1-0.2
		c0.1,0,0.2,0,0.3,0c0,0,0-0.1,0-0.1c0,0,0.1,0,0.1,0C5,5.4,5,5.3,5,5.2z"/>
	<path class="st101" d="M14.5,20.5c0.4,0,0.6,0,0.9,0.2c-0.1,0-0.2,0-0.3,0c-0.1,0-0.1,0-0.2,0c-0.1,0-0.3,0-0.4-0.1
		c0,0.1,0,0.2-0.1,0.3c0,0,0,0-0.1,0C14.5,20.8,14.5,20.6,14.5,20.5z"/>
	<path class="st102" d="M4.2,10.3c0,0,0.1,0.1,0.1,0.1c0,0.2,0,0.2-0.1,0.3c-0.2,0-0.3,0-0.5,0.1c0-0.1,0-0.2-0.1-0.2
		c0.2,0,0.3-0.1,0.5,0C4.2,10.4,4.2,10.3,4.2,10.3z"/>
	<path class="st103" d="M9.7,8.8c0.1,0,0.2,0,0.3,0.1c0,0.1,0,0.2,0,0.3c-0.1,0-0.1,0-0.2,0.1c0,0-0.1-0.1-0.1-0.1
		C9.7,8.9,9.7,8.9,9.7,8.8z"/>
	<path class="st104" d="M16.1,0.6c0.1,0,0.1,0,0.2,0c0.1,0.1,0.1,0.1,0.2,0.2c-0.2,0.1-0.3,0-0.5,0c-0.1,0-0.1,0-0.2-0.1
		c0,0-0.1,0-0.1,0c0,0,0-0.1,0-0.1C15.8,0.5,15.9,0.5,16.1,0.6z"/>
	<path class="st105" d="M14.5,26.2c0,0,0,0.1,0.1,0.1c0.1,0,0.2,0,0.3,0c-0.3,0.2-0.7,0.2-1.1,0.2c0,0,0-0.1,0.1-0.1
		c0.1,0,0.1,0,0.3,0C14.3,26.3,14.3,26.3,14.5,26.2z"/>
	<path class="st106" d="M12,25.2c0.1,0.1,0.1,0.1,0.2,0.1c0,0,0,0,0,0.1c-0.5,0-1,0-1.5,0c0,0,0,0,0-0.1c0,0,0.1,0,0.1,0
		c0.2,0,0.3,0,0.5,0c0.1,0,0.1,0,0.2,0c0.1,0,0.1,0,0.2,0c0.1,0,0.1,0,0.1,0C11.8,25.3,11.8,25.3,12,25.2z"/>
	<path class="st107" d="M1,11.3c0.1,0,0.2,0,0.3,0c0,0,0,0.1,0.1,0.1c0,0-0.1,0.1-0.1,0.1c0,0-0.1,0-0.1-0.1c0,0.1,0,0.2-0.1,0.4
		c0,0-0.1,0-0.1,0c0,0,0,0.1-0.1,0.1c0-0.1,0-0.1-0.1-0.3c0.1-0.1,0.1-0.1,0.2-0.2C1,11.4,1,11.4,1,11.3z"/>
	<path class="st108" d="M3.6,2.8C3.7,2.8,3.7,2.8,3.6,2.8C3.7,2.9,3.7,3,3.8,3c0,0.1,0,0.1,0,0.2c0,0.2,0,0.2,0,0.4
		c0,0.1,0,0.2-0.1,0.4C3.5,3.7,3.6,3.5,3.6,3.2c0,0,0-0.1,0-0.1C3.6,3,3.6,2.9,3.6,2.8z"/>
	<path class="st109" d="M15.4,19c0,0,0.1,0,0.1,0c-0.2,0.2-0.3,0.3-0.5,0.4c0,0,0-0.1,0-0.1c0,0-0.1,0-0.1-0.1
		C15.2,19,15.2,19,15.4,19z"/>
	<path class="st110" d="M2.8,9.8c0,0,0,0.1,0,0.1c-0.1,0-0.2,0-0.2,0c0,0,0,0.1,0,0.1c-0.2,0-0.4,0-0.5,0C2,9.9,2,9.9,2.2,9.8
		C2.4,9.8,2.6,9.8,2.8,9.8z"/>
	<path class="st111" d="M13.6,8.6c0.3,0,0.4,0.1,0.5,0.3c0,0.1,0,0.1,0.1,0.2c-0.1,0-0.1,0-0.2,0C14,9,14,8.9,13.9,8.8
		c-0.1,0-0.2,0-0.2,0C13.7,8.7,13.6,8.7,13.6,8.6z"/>
	<path class="st112" d="M5.2,2.9C5.2,3,5.3,3,5.3,3.1c-0.1,0-0.2,0-0.2,0.1c0,0,0,0.1,0,0.1c0,0-0.1,0-0.1,0C5,3.4,5,3.5,5,3.7
		c0,0-0.1,0-0.1,0c0-0.2,0-0.4-0.1-0.6c0,0,0.1,0,0.1,0c0,0,0.1,0,0.2,0C5.1,3,5.2,2.9,5.2,2.9z"/>
	<path class="st113" d="M15.7,18.5c0.1,0,0.1,0,0.2,0.1c0,0.1-0.1,0.3-0.1,0.4c-0.1,0-0.2,0-0.4,0.1C15.5,18.9,15.6,18.7,15.7,18.5z
		"/>
	<path class="st114" d="M15.2,9C15.2,9,15.2,9,15.2,9c0.1,0.1,0.1,0.2,0.1,0.3c0.1,0,0.1,0,0.2,0.1c0,0.1,0,0.3-0.1,0.4
		c-0.1,0-0.1,0-0.2-0.1C15.1,9.5,15.2,9.3,15.2,9z"/>
	<path class="st115" d="M14.3,15.5c0.2,0,0.2,0,0.3,0.1c-0.1,0-0.2,0-0.2,0.1c0,0,0,0.1,0,0.1c0,0,0,0.1-0.1,0.1
		c-0.2,0.1-0.2,0.1-0.4,0.1C14.1,15.6,14.1,15.6,14.3,15.5z"/>
	<path class="st116" d="M7.8,0.4C7.7,0.5,7.6,0.6,7.4,0.6c-0.1,0-0.1,0-0.2,0c-0.1,0-0.1,0-0.3-0.1C7.2,0.4,7.5,0.4,7.8,0.4z"/>
	<path class="st117" d="M5.3,24.4c0.1,0,0.1,0,0.1,0.1c0.3,0.1,0.6,0.3,0.9,0.4c0,0,0,0,0,0.1c-0.3,0-0.4,0-0.6-0.2
		c-0.2,0-0.2,0-0.3-0.1C5.3,24.5,5.3,24.5,5.3,24.4z"/>
	<path class="st118" d="M16,20.9c0.3,0,0.5,0.1,0.8,0.2c0,0,0,0.1,0.1,0.1c-0.1,0-0.2,0-0.4,0c0-0.1,0-0.1,0-0.2c0,0-0.1,0-0.1,0
		C16.2,21.1,16.1,21,16,20.9z"/>
	<path class="st119" d="M11.8,20.7c0.1,0,0.2,0,0.2,0c0,0.1,0,0.1,0.1,0.2c0,0-0.1,0-0.1,0c0,0.1,0,0.2,0,0.2c0.1,0,0.2,0,0.3,0
		c0,0,0,0,0,0.1c-0.2,0-0.4,0-0.6,0c0.1,0,0.1-0.1,0.2-0.1c0,0,0-0.1,0-0.1C11.8,20.8,11.8,20.8,11.8,20.7z"/>
	<path class="st120" d="M7.4,20.2c0.1,0,0.1,0,0.2,0c0,0,0.1,0,0.1,0c-0.3,0.2-0.6,0.2-0.9,0.2C6.9,20.2,7.2,20.2,7.4,20.2z"/>
	<path class="st121" d="M16.9,19.4c0.1,0,0.1,0,0.2,0.1c0,0.1,0,0.2,0,0.3c0,0-0.1,0-0.1,0c0,0.1,0,0.2,0,0.2c-0.1,0-0.1,0-0.2-0.1
		C16.8,19.7,16.9,19.5,16.9,19.4z"/>
	<path class="st122" d="M4.3,11.1c0.2,0.1,0.2,0.1,0.2,0.2c0.1,0.2,0.1,0.3,0,0.5c-0.1,0-0.1,0-0.2-0.1C4.4,11.5,4.4,11.3,4.3,11.1z
		"/>
	<path class="st123" d="M8.4,10.1c0.1,0,0.2,0,0.2,0c0.1,0.1,0.1,0.1,0.2,0.2c0,0.1,0,0.1,0.1,0.1c0,0,0,0.1,0.1,0.1
		c-0.3-0.1-0.4-0.1-0.6-0.4C8.4,10.2,8.4,10.2,8.4,10.1z"/>
	<path class="st124" d="M9.5,8.6c0.4,0,0.4,0,0.6,0.2c0,0.1,0,0.1,0.1,0.1c0,0.1,0,0.1-0.1,0.2c0,0-0.1,0-0.1,0C10,9,10,8.9,10,8.8
		c-0.1,0-0.2,0-0.3,0c0-0.1,0-0.1,0-0.2C9.6,8.6,9.6,8.6,9.5,8.6z"/>
	<path class="st125" d="M14.8,7.7c0.3,0.2,0.3,0.2,0.4,0.4c-0.1,0-0.2,0-0.2,0.1c-0.1-0.1-0.2-0.2-0.2-0.3c0,0,0.1,0,0.1,0
		C14.8,7.8,14.8,7.8,14.8,7.7z"/>
	<path class="st126" d="M4.4,3.6c0.1,0.1,0.1,0.1,0.3,0.1C4.6,3.8,4.6,3.8,4.5,3.9c-0.1,0-0.1,0-0.2,0C4.2,4,4.2,4,4.1,4
		c0-0.1,0-0.2,0.1-0.2c0.1,0,0.1,0,0.2,0C4.4,3.7,4.4,3.7,4.4,3.6z"/>
	<path class="st127" d="M13.7,2.8c0,0,0.1,0,0.1,0.1c0,0,0,0.1-0.1,0.1c0,0,0,0.1,0,0.1c-0.2,0.1-0.3,0.2-0.5,0.2
		C13.4,3,13.5,2.9,13.7,2.8z"/>
	<path class="st128" d="M2.8,15.9c0.1,0,0.1,0,0.2,0C3.1,16,3.1,16,3.2,16.2c-0.1,0.1-0.1,0.1-0.2,0.2c-0.1,0-0.1,0-0.2-0.1
		c-0.1-0.1-0.1-0.1-0.1-0.2c0.1,0,0.1,0,0.2,0C2.9,16,2.8,16,2.8,15.9z"/>
	<path class="st129" d="M11.5,15.3c0.1,0,0.1,0,0.2,0c0.1,0,0.1,0,0.2,0c0,0,0.1,0,0.1,0c-0.1,0.1-0.2,0.2-0.4,0.2
		c-0.2-0.1-0.2-0.1-0.4-0.1C11.4,15.3,11.4,15.3,11.5,15.3z"/>
	<path class="st130" d="M4.8,10.4c0.1,0.1,0.1,0.1,0.2,0.2c0,0,0,0.1,0,0.1c0,0.1,0,0.1,0,0.1c0,0.1,0,0.1,0,0.4c0,0-0.1,0-0.1,0
		C4.8,10.7,4.8,10.7,4.8,10.4z"/>
	<path class="st131" d="M13.7,8.8c0.1,0,0.2,0,0.2,0.1C14,8.9,14,9,14,9.1c-0.1,0.1-0.1,0.1-0.2,0.1c-0.1-0.1-0.1-0.1-0.1-0.2
		C13.7,8.9,13.7,8.8,13.7,8.8z"/>
	<path class="st132" d="M10,7c0.1,0.1,0.1,0.1,0,0.3C10,7.4,10,7.4,9.8,7.5c-0.1,0-0.2,0-0.3,0c-0.1,0-0.1,0-0.1,0
		c-0.1,0-0.1,0-0.1,0c0,0,0,0,0-0.1c0.2,0,0.3,0,0.5-0.1c0-0.1,0-0.1,0-0.2C9.9,7.1,9.9,7.1,10,7z"/>
	<path class="st133" d="M9.5,0.6c0.1,0,0.3,0,0.4,0.1C9.8,0.8,9.8,0.8,9.7,0.9c-0.1,0-0.2,0-0.2,0C9.4,0.8,9.5,0.7,9.5,0.6z"/>
	<path class="st134" d="M7.6,25.6c0.2,0,0.4,0,0.5,0.1c0,0.1,0,0.2-0.1,0.2c-0.3-0.1-0.3-0.1-0.5-0.1C7.6,25.7,7.6,25.7,7.6,25.6z"
		/>
	<path class="st135" d="M5.8,21.1c0,0,0.1,0,0.1,0.1c-0.1,0.1-0.1,0.1-0.1,0.1c-0.2,0.2-0.2,0.4-0.2,0.6c0,0,0,0-0.1,0
		c0-0.2,0-0.4,0-0.5c0,0,0.1,0,0.1,0c0-0.1,0-0.2,0-0.2C5.6,21.1,5.7,21.1,5.8,21.1z"/>
	<path class="st136" d="M9.1,14.5c0.2,0.1,0.2,0.1,0.5,0.2c-0.1,0.1-0.1,0.2-0.2,0.2c-0.1,0-0.1,0-0.2-0.1
		C9.2,14.7,9.1,14.6,9.1,14.5z"/>
	<path class="st69" d="M1.6,13.6c0,0,0,0.1,0.1,0.1c0,0,0.1,0,0.1,0.1c0,0-0.1,0-0.1,0c0,0,0,0.1,0,0.1c0,0,0.1,0,0.1,0.1
		c-0.1,0-0.1,0-0.1,0.1c0,0-0.1,0-0.1-0.1c0,0,0,0.1-0.1,0.1c0-0.1,0-0.2-0.1-0.4C1.5,13.6,1.5,13.6,1.6,13.6z"/>
	<path class="st137" d="M8.2,9c0,0,0.1,0,0.1,0c0,0.2,0,0.4,0.1,0.6c-0.1,0-0.2,0-0.3-0.1C8.2,9.3,8.2,9.1,8.2,9z"/>
	<path class="st138" d="M4.9,22.7C5.1,22.8,5.1,22.8,5,23c0,0.1,0,0.1,0,0.2c0,0.1,0,0.1,0,0.2c0,0.1,0,0.1,0,0.1
		c-0.1-0.1-0.1-0.1-0.2-0.2c0,0,0.1,0,0.1-0.1c0-0.1,0-0.1-0.1-0.2C4.9,22.8,4.9,22.8,4.9,22.7z"/>
	<path class="st139" d="M5.6,20.8c0,0,0.1,0,0.1,0c-0.1,0.2-0.2,0.3-0.3,0.4c0,0-0.1,0-0.1,0c0,0.1,0,0.2-0.1,0.3c0,0,0,0-0.1,0
		c0-0.1,0-0.3,0.1-0.4c0,0,0.1,0,0.1,0c0,0,0.1-0.1,0.1-0.1C5.5,20.9,5.5,20.9,5.6,20.8z"/>
	<path class="st90" d="M3.6,17.2C4,17.2,4,17.2,4.2,17.3c0,0,0,0.1,0,0.1c-0.1,0-0.2,0-0.3,0c-0.1,0-0.1,0-0.1,0
		c-0.1,0-0.1,0-0.2-0.1C3.6,17.2,3.6,17.2,3.6,17.2z"/>
	<path class="st140" d="M7.9,16.8c0.1,0,0.3,0.1,0.4,0.1C8.2,17,8,17.1,7.8,17.1C7.8,17,7.9,16.9,7.9,16.8z"/>
	<path class="st141" d="M8.1,15.6c0.2,0,0.2,0.1,0.4,0.2c0.1,0,0.1,0,0.2,0.1c-0.1,0-0.2,0.1-0.4,0.1c0,0-0.1,0-0.1-0.1
		c0,0,0-0.1,0-0.1c0,0-0.1,0-0.1,0C8,15.7,8,15.6,8.1,15.6z"/>
	<path class="st142" d="M15.4,9.8c0.1,0.1,0.1,0.1,0.2,0.1c-0.1,0.2-0.1,0.2-0.3,0.2c-0.1,0-0.1,0-0.2,0C15.3,9.9,15.3,9.9,15.4,9.8
		z"/>
	<path class="st143" d="M13.6,8.7c-0.1,0.2-0.1,0.2-0.2,0.3c0,0-0.1,0-0.1,0c0,0.1,0,0.1,0,0.2c0,0-0.1,0-0.1,0
		C13.2,8.7,13.2,8.7,13.6,8.7z"/>
	<path class="st144" d="M4.5,2.7c0,0.1,0,0.1,0.1,0.2C4.5,2.9,4.4,3,4.3,3.1c0,0,0,0.1,0.1,0.1c-0.1,0-0.1,0-0.2,0.1
		c0-0.1-0.1-0.3-0.1-0.4c0.1,0,0.3,0,0.4,0C4.5,2.8,4.5,2.7,4.5,2.7z"/>
	<path class="st145" d="M9,26.9c0.4,0,0.7,0,1.1,0.1c0,0,0,0,0,0.1C9.3,27.1,9.3,27.1,9,26.9C9,27,9,26.9,9,26.9z"/>
	<path class="st146" d="M1.2,10.4c0.1,0,0.2,0.1,0.2,0.1c0,0,0,0.1,0,0.1c-0.3,0.1-0.3,0.1-0.5,0.1C1.1,10.6,1.1,10.5,1.2,10.4z"/>
	<path class="st147" d="M14.9,10.3c0.1,0,0.1,0,0.2,0.1c-0.2,0.2-0.3,0.3-0.6,0.4c0,0,0.1-0.1,0.1-0.1
		C14.6,10.5,14.7,10.4,14.9,10.3z"/>
	<path class="st148" d="M12.8,9.1C12.9,9.1,12.9,9.1,12.8,9.1c0.1,0.1,0.1,0.1,0.1,0.2c0,0.1,0,0.1,0,0.2c0,0.1,0,0.1,0,0.2
		c0,0.2,0,0.3,0.1,0.4c-0.1,0-0.2-0.1-0.2-0.1c0-0.1,0-0.3,0-0.4c0-0.1,0-0.1,0-0.2C12.8,9.2,12.8,9.2,12.8,9.1z"/>
	<path class="st149" d="M9,14.9c0,0,0,0.1,0.1,0.1c0,0,0.1,0,0.1,0.1c-0.1,0.1-0.1,0.2-0.2,0.2c-0.1-0.1-0.2-0.2-0.3-0.4
		C8.8,15,8.9,14.9,9,14.9z"/>
	<path class="st150" d="M3.9,11c0.2,0,0.2,0,0.4,0c0.1,0.2,0.1,0.2,0.1,0.3c0,0,0,0.1,0,0.1c0,0-0.1-0.1-0.1-0.1c0-0.1,0-0.1,0-0.2
		c-0.1,0-0.2,0-0.4,0C3.9,11.1,3.9,11.1,3.9,11z"/>
	<path class="st151" d="M4.9,1.8C5,1.9,5,1.9,4.9,2.1c0,0.1,0,0.1-0.1,0.2c0,0-0.1-0.1-0.1-0.1c-0.1,0-0.1,0-0.2,0.1
		C4.7,2,4.8,1.9,4.9,1.8z"/>
	<path class="st152" d="M14.4,18.9c0,0,0.1,0,0.1,0.1c0,0.1,0,0.1-0.1,0.2c-0.1,0-0.1,0-0.2,0.1c-0.1,0.1-0.1,0.1-0.2,0.2
		C14.1,19.2,14.3,19,14.4,18.9z"/>
	<path class="st153" d="M13,10.1c0.3,0.3,0.3,0.3,0.4,0.4c-0.1,0-0.3,0-0.4-0.1c0,0,0-0.1-0.1-0.1c0,0,0.1,0,0.1,0
		C13,10.3,13,10.2,13,10.1z"/>
	<path class="st154" d="M3.8,9.3C3.8,9.3,3.8,9.4,3.8,9.3c0,0.1,0.1,0.1,0.2,0.2C3.8,9.6,3.8,9.6,3.6,9.6c0-0.1,0-0.2,0-0.2
		c-0.1,0-0.2,0-0.2-0.1C3.6,9.3,3.6,9.3,3.8,9.3z"/>
	<path class="st155" d="M5.3,7.2C5.3,7.2,5.3,7.2,5.3,7.2c0.1,0.2,0.1,0.3,0.1,0.5c-0.1,0-0.1-0.1-0.2-0.1c-0.1,0-0.1,0-0.2-0.1
		c0,0,0.1,0,0.1-0.1C5.2,7.3,5.2,7.3,5.3,7.2z M4.9,7.4c0.1,0,0.1,0,0.1,0.1c0,0,0,0.1,0,0.1c0,0-0.1,0-0.1,0
		C4.9,7.5,4.9,7.5,4.9,7.4z"/>
	<path class="st156" d="M16.7,25.7c0,0,0,0.1,0,0.1c-0.2,0.1-0.4,0.2-0.6,0.2c0-0.1,0-0.1,0-0.2c0.1,0,0.2-0.1,0.2-0.1
		c0.1,0,0.1,0,0.1,0C16.6,25.7,16.6,25.7,16.7,25.7z"/>
	<path class="st157" d="M4.5,3.5c0.1,0,0.1,0,0.2,0c0,0.1,0,0.2-0.1,0.2c0,0,0-0.1-0.1-0.1c0,0-0.1,0.1-0.1,0.1
		C4.3,3.8,4.3,3.8,4.2,3.8C4.2,3.5,4.2,3.5,4.5,3.5z"/>
	<path class="st158" d="M14.3,25.6c0.2,0,0.3,0,0.5,0.1c-0.1,0.1-0.1,0.1-0.2,0.2c0,0-0.1,0-0.1,0c0,0-0.1,0-0.1,0c0,0-0.1,0-0.1,0
		c0,0,0-0.1,0-0.1c0,0,0.1,0,0.1-0.1C14.4,25.7,14.3,25.7,14.3,25.6z"/>
	<path class="st159" d="M17.5,21.5c0.1,0.1,0.1,0.1,0.1,0.2c0,0.1,0,0.2,0,0.4c-0.1-0.1-0.2-0.2-0.2-0.4
		C17.4,21.6,17.4,21.6,17.5,21.5z"/>
	<path class="st160" d="M6.1,21.4c0.2,0.1,0.2,0.1,0.4,0.2c0,0,0,0.1,0,0.1c-0.1,0-0.3,0-0.4-0.1C6.1,21.6,6.1,21.5,6.1,21.4z"/>
	<path class="st161" d="M16.7,21.2c0.2,0.1,0.2,0.1,0.3,0.1c0,0.1,0,0.1,0,0.2c-0.1,0-0.3-0.1-0.4-0.1c0,0,0-0.1,0-0.1
		C16.6,21.2,16.6,21.2,16.7,21.2z"/>
	<path class="st162" d="M15.6,17.6c0.1,0,0.2,0,0.4,0c0,0.2,0,0.2-0.1,0.4c0,0-0.1,0-0.1,0C15.7,17.9,15.7,17.8,15.6,17.6z"/>
	<path class="st163" d="M10.7,14.2c0.2,0,0.2,0,0.4,0.1c0,0.1,0,0.2-0.1,0.2c-0.1,0-0.2,0-0.2-0.1C10.8,14.3,10.7,14.2,10.7,14.2z"
		/>
	<path class="st164" d="M2.1,11c0.1,0,0.1,0.1,0.2,0.1c0,0,0.1,0,0.1-0.1c0,0.1,0,0.1,0,0.2c-0.1,0-0.2,0-0.2,0c0,0.1,0,0.2-0.1,0.2
		c0-0.1-0.1-0.2-0.1-0.4c0,0,0.1,0,0.1,0C2.1,11.1,2.1,11,2.1,11z"/>
	<path class="st165" d="M12.8,25.7c0.2,0,0.3,0,0.5,0c-0.1,0.1-0.1,0.1-0.2,0.2c-0.1,0-0.2,0-0.2,0C12.8,25.9,12.8,25.8,12.8,25.7z"
		/>
	<path class="st166" d="M5.6,25c0.1,0,0.1,0,0.2,0.1c0,0.1,0,0.1,0.1,0.2c0,0-0.1,0-0.1,0c0,0.1,0,0.2-0.1,0.2
		C5.6,25.4,5.6,25.2,5.6,25z"/>
	<path class="st167" d="M17,25c0,0.1,0,0.2,0,0.3c0,0-0.1,0-0.1,0c0,0,0-0.1,0-0.1c-0.1,0-0.2,0.1-0.3,0.1c0,0-0.1-0.1-0.1-0.1
		c0.1,0,0.2-0.1,0.2-0.1c0,0,0.1,0,0.1,0C16.9,25,16.9,25,17,25z"/>
	<path class="st168" d="M17.3,24.8c0.2,0.2,0.2,0.2,0.2,0.4c0,0.1-0.1,0.2-0.1,0.3c0,0,0,0-0.1,0C17.3,25.3,17.3,25,17.3,24.8z"/>
	<path class="st169" d="M17.2,20.7c0,0,0,0.1,0.1,0.1c0.1,0.1,0.1,0.1,0.2,0.3c0,0.1,0,0.1-0.1,0.2c0,0,0-0.1,0-0.1c0,0-0.1,0-0.1,0
		c0,0,0-0.1,0-0.1c0,0-0.1,0-0.1,0C17.1,21,17.1,20.9,17.2,20.7C17.1,20.8,17.1,20.7,17.2,20.7z"/>
	<path class="st170" d="M4.3,17.4c0.2,0,0.3,0,0.5,0.1c0,0,0,0.1,0,0.1c-0.1,0-0.1,0-0.3,0.1c-0.1,0-0.1-0.1-0.2-0.1
		C4.3,17.5,4.3,17.4,4.3,17.4z"/>
	<path class="st171" d="M7.8,15.6c0,0.1,0.1,0.1,0.1,0.2c-0.1,0-0.2,0-0.2,0c0,0,0,0.1-0.1,0.1c-0.1-0.1-0.2-0.1-0.2-0.2
		C7.6,15.7,7.7,15.7,7.8,15.6z"/>
	<path class="st172" d="M1.2,14.1c0.1,0.2,0.1,0.3,0.2,0.5c-0.1,0-0.1,0-0.2,0.1c0-0.1,0-0.1,0-0.2c0,0-0.1,0-0.1-0.1
		C1.1,14.3,1.1,14.2,1.2,14.1z"/>
	<path class="st173" d="M16.8,13c0,0.1,0,0.1,0.1,0.2c-0.1,0.1-0.2,0.2-0.3,0.4c0,0-0.1,0-0.1-0.1c0-0.1,0.1-0.2,0.1-0.2
		c0,0,0.1,0,0.1,0c0-0.1,0-0.1,0-0.2C16.7,13,16.8,13,16.8,13z"/>
	<path class="st174" d="M5.8,12.7c0,0,0.1,0,0.1,0c0,0.1,0,0.1,0.1,0.1C6,13,6,13,6.2,13c0,0.1,0,0.1,0.1,0.2
		c-0.2-0.1-0.3-0.2-0.4-0.4C5.8,12.8,5.8,12.8,5.8,12.7z"/>
	<path class="st175" d="M3.5,11.6c0,0.1,0,0.2,0.1,0.2c0.1,0,0.2,0,0.3,0c0,0,0,0,0,0.1c-0.2,0-0.3,0-0.5,0c0,0,0,0.1-0.1,0.1
		C3.3,11.8,3.3,11.8,3.5,11.6z"/>
	<path class="st176" d="M4.9,6.5c0,0.2,0,0.2-0.1,0.3c0,0-0.1,0-0.1,0c0-0.1,0-0.2,0-0.2C4.8,6.6,4.8,6.6,4.9,6.5z M4.5,6.8
		c0.1,0.1,0.1,0.1,0.2,0.1c-0.1,0-0.2,0-0.2,0.1C4.5,6.9,4.5,6.8,4.5,6.8z"/>
	<path class="st177" d="M4.3,1.6c0,0,0.1,0,0.1,0.1C4.4,1.8,4.4,1.9,4.2,2c0,0-0.1,0-0.1,0C4.1,2,4.1,2,4,2.1
		C4.1,1.9,4.2,1.7,4.3,1.6z"/>
	<path class="st178" d="M5.7,21.2c0.1,0,0.2,0.1,0.2,0.1c-0.1,0-0.1,0-0.1,0.1c0,0.1,0,0.1,0,0.2c-0.1,0-0.2,0-0.2-0.1
		C5.6,21.4,5.7,21.3,5.7,21.2z"/>
	<path class="st179" d="M13.1,10.1c0.1,0.1,0.3,0.2,0.4,0.4c-0.1,0.1-0.1,0.1-0.1,0.2c0-0.1-0.1-0.1-0.1-0.2c0,0-0.1-0.1-0.1-0.1
		C13.1,10.2,13.1,10.2,13.1,10.1z"/>
	<path class="st180" d="M13.1,7.9c0,0,0.1,0,0.1,0c0,0.1,0,0.1,0.1,0.2c-0.1,0.1-0.1,0.1-0.2,0.1c-0.1,0-0.1,0-0.1,0
		C13,8,13,8,13.1,7.9z"/>
	<path class="st181" d="M4.3,5.4c0.1,0.1,0.1,0.1,0.2,0.2c0,0.1-0.1,0.3-0.1,0.4C4.3,5.8,4.3,5.7,4.3,5.5C4.3,5.5,4.3,5.4,4.3,5.4z"
		/>
	<path class="st182" d="M4.6,4.8c0,0,0,0.1,0,0.1c0,0-0.1,0-0.1,0c0,0,0,0.1,0,0.1C4.4,5,4.3,5,4.3,5c0,0.1,0,0.1-0.1,0.2
		c0-0.1,0-0.1,0-0.3C4.4,4.8,4.4,4.8,4.6,4.8z"/>
	<path class="st183" d="M5,1.8c0,0,0.1,0,0.1,0.1c0,0.1,0,0.1-0.1,0.2c0,0,0.1,0.1,0.1,0.1C5.1,2.2,5,2.2,4.9,2.2
		C4.9,1.9,4.9,1.9,5,1.8z"/>
	<path class="st184" d="M13,20.7c0.1,0.1,0.1,0.1,0.2,0.1c0,0.1,0,0.2,0,0.3c-0.1,0-0.1,0-0.2,0c0,0,0-0.1,0-0.1
		C13.1,20.8,13.1,20.8,13,20.7z M13.2,20.7c0.1,0.1,0.1,0.1,0.1,0.1L13.2,20.7z"/>
	<path class="st185" d="M13.7,16.5c0.2,0,0.2,0,0.3,0.1c0,0,0,0.1,0,0.1c-0.2,0.1-0.2,0.1-0.3,0c0,0-0.1,0-0.1-0.1
		C13.7,16.6,13.7,16.6,13.7,16.5z"/>
	<path class="st186" d="M14.6,15.6c0,0,0.1,0.1,0.1,0.1c-0.2,0.2-0.2,0.2-0.4,0.2c0-0.1,0-0.2,0-0.2C14.4,15.6,14.4,15.6,14.6,15.6z
		"/>
	<path class="st187" d="M11.3,13.5c0.2,0,0.4,0.1,0.6,0.2c0,0,0,0.1,0,0.1C11.6,13.7,11.6,13.7,11.3,13.5
		C11.3,13.5,11.3,13.5,11.3,13.5z"/>
	<path class="st188" d="M14.6,10.6c0,0.1,0,0.2-0.1,0.2c-0.1,0-0.3,0-0.4-0.1c0,0,0-0.1,0-0.1C14.3,10.6,14.4,10.6,14.6,10.6z"/>
	<path class="st189" d="M15.3,8.9c0.1,0,0.1,0,0.2,0.1c0,0.1,0,0.2,0,0.4c-0.1,0-0.1,0-0.2,0C15.3,9.2,15.3,9,15.3,8.9z"/>
	<path class="st190" d="M4.8,8.4c0.1,0,0.2,0,0.3,0C5,8.5,5,8.5,5,8.7c-0.1,0-0.1,0.1-0.2,0.1C4.8,8.7,4.8,8.6,4.8,8.4z"/>
	<path class="st191" d="M15,8.1c0.1,0,0.2,0,0.2,0c0,0.1,0,0.2,0,0.3c-0.1,0-0.1,0-0.2-0.1C15,8.3,14.9,8.3,15,8.1
		C14.9,8.2,15,8.2,15,8.1z"/>
	<path class="st192" d="M4.2,8c0,0,0.1,0,0.1,0c0.1,0.3,0.1,0.3,0,0.4c0,0-0.1,0-0.1,0c0-0.1,0-0.1,0-0.2c0,0-0.1,0-0.1-0.1
		c0,0,0.1,0,0.1,0C4.2,8.1,4.2,8,4.2,8z"/>
	<path class="st193" d="M8.7,6c0,0.1,0,0.1,0.1,0.2c-0.1,0-0.1,0-0.1,0C8.5,6.3,8.5,6.3,8.4,6.5c0,0-0.1,0-0.1-0.1
		C8.4,6.3,8.5,6.1,8.7,6z"/>
	<path class="st194" d="M15.7,4.3c0.1,0.1,0.1,0.1,0.2,0.2c-0.1,0.1-0.2,0.2-0.2,0.3C15.6,4.6,15.6,4.5,15.7,4.3
		C15.6,4.3,15.7,4.3,15.7,4.3z"/>
	<path class="st195" d="M12,3.1c0,0,0.1,0,0.1,0.1c0,0,0,0.1,0,0.1c0,0,0.1,0,0.1,0.1c-0.2,0-0.3,0-0.5,0c0,0,0-0.1-0.1-0.1
		c0.1,0,0.2,0,0.3,0C12,3.1,12,3.1,12,3.1z"/>
	<path class="st196" d="M9.2,26.3c0,0,0,0.1,0.1,0.1c0,0.1,0,0.1-0.1,0.2c-0.1,0-0.2,0-0.3,0C9,26.4,9,26.4,9.1,26.3
		C9.1,26.3,9.2,26.3,9.2,26.3z"/>
	<path class="st197" d="M11.8,25.8c0,0,0.1,0,0.1,0c0,0.1,0,0.2,0,0.2c-0.2,0-0.3,0-0.5,0c0,0,0-0.1,0-0.1c0.1,0,0.1,0,0.3,0.1
		C11.7,26,11.8,25.9,11.8,25.8z"/>
	<path class="st198" d="M5.1,21.7c0.1,0,0.1,0,0.2,0c0,0.2-0.1,0.3-0.2,0.5C5.1,22,5.1,21.8,5.1,21.7z"/>
	<path class="st199" d="M8,20.2c0,0,0,0.1,0,0.1c-0.2,0-0.3,0-0.5,0.1c0-0.1,0-0.1,0.1-0.2C7.9,20.1,7.9,20.1,8,20.2z"/>
	<path class="st200" d="M7.6,15.2c0.1,0,0.3,0,0.4,0c-0.1,0.1-0.1,0.1-0.2,0.2c-0.2,0-0.2,0-0.3-0.1C7.6,15.3,7.6,15.3,7.6,15.2z"/>
	<path class="st201" d="M4,11.9c0,0,0.1,0,0.1,0.1c-0.3,0.2-0.3,0.2-0.5,0.2c0,0,0-0.1,0-0.1C3.8,12,3.9,12,4,11.9z"/>
	<path class="st202" d="M1.3,10.8c0,0.1,0,0.1,0,0.2c-0.1,0-0.1,0-0.2,0.1c0,0,0-0.1,0-0.1c-0.1,0-0.2,0-0.2-0.1
		C1.1,10.7,1.1,10.7,1.3,10.8z"/>
	<path class="st203" d="M13.3,7.5c0.1,0,0.2,0,0.4,0c-0.3,0.2-0.3,0.2-0.4,0.3C13.2,7.7,13.2,7.6,13.3,7.5z"/>
	<path class="st204" d="M8.5,0.7c0.1,0,0.2,0,0.2,0.1c0,0.1,0,0.2,0,0.2C8.7,1,8.6,1,8.5,0.9C8.5,0.9,8.5,0.8,8.5,0.7z"/>
	<path class="st205" d="M8.4,0.2c0.2,0,0.4,0,0.6,0c0,0,0,0,0,0.1c-0.1,0-0.2,0-0.3,0c0,0,0,0.1,0,0.1c-0.1,0-0.2,0-0.3-0.1
		C8.4,0.3,8.4,0.3,8.4,0.2z"/>
	<path class="st206" d="M17.3,16.3c0.2,0.1,0.2,0.1,0.2,0.1L17.3,16.3z"/>
	<path class="st207" d="M2.8,9.1c0.2,0.1,0.2,0.1,0.2,0.1L2.8,9.1z"/>
	<path class="st208" d="M8.2,27c0.1,0.1,0.1,0.1,0.1,0.1L8.2,27z"/>
	<path class="st209" d="M6.4,26.7c0.1,0.1,0.1,0.1,0.1,0.1L6.4,26.7z"/>
	<path class="st210" d="M5,21.2c0.1,0.1,0.1,0.1,0.1,0.1L5,21.2z"/>
	<path class="st211" d="M17.6,16.6c0.1,0.1,0.1,0.1,0.1,0.1L17.6,16.6z"/>
	<path class="st212" d="M6,13.6c0.1,0.1,0.1,0.1,0.1,0.1L6,13.6z"/>
	<path class="st213" d="M5.6,12.9C5.8,13,5.8,13,5.8,13L5.6,12.9z"/>
	<path class="st214" d="M7.7,0.1c0.1,0.1,0.1,0.1,0.1,0.1L7.7,0.1z"/>
</g>
</svg>
